<svg width="503" height="310" viewBox="0 0 503 310" version="1.1" xmlns="http://www.w3.org/2000/svg" xmlns:xlink="http://www.w3.org/1999/xlink">
<title>Component</title>
<desc>Created using Figma</desc>
<g id="Canvas" transform="translate(-1390 -1207)">
<g id="Component">
<g id="3">
<g id="LINE3" filter="url(#filter0_d)">
<g id="Path 12">
<use xlink:href="#path0_stroke" transform="translate(1410.6 1229.57)" fill="url(#paint0_linear)"/>
</g>
<g id="Path 12">
<use xlink:href="#path1_stroke" transform="translate(1528.51 1234.29)" fill="url(#paint1_linear)"/>
</g>
<g id="Path 12">
<use xlink:href="#path2_stroke" transform="translate(1415.32 1335.35)" fill="url(#paint2_linear)"/>
</g>
</g>
<g id="Star 3">
<g id="Star Copy 2">
<use xlink:href="#path3_fill" transform="matrix(0.766044 0.642788 -0.642788 0.766044 1529.56 1311.17)" fill="url(#paint3_linear)"/>
</g>
<g id="Star Copy 8">
<use xlink:href="#path4_fill" transform="matrix(0.965926 0.258819 -0.258819 0.965926 1397.76 1453.22)" fill="url(#paint4_linear)"/>
</g>
<g id="Star Copy 9">
<use xlink:href="#path5_fill" transform="matrix(0.766044 0.642788 -0.642788 0.766044 1597.23 1213.66)" fill="url(#paint5_linear)"/>
</g>
<g id="Star Copy 3">
<use xlink:href="#path3_fill" transform="translate(1391.88 1212.22)" fill="url(#paint6_linear)"/>
</g>
</g>
</g>
<g id="D">
<g id="LINE D">
<g id="Path 13">
<use xlink:href="#path6_stroke" transform="translate(1657.39 1225.05)" fill="url(#paint7_linear)"/>
</g>
</g>
<g id="STARS D">
<g id="Star Copy 4">
<use xlink:href="#path7_fill" transform="matrix(0.984808 0.173648 -0.173648 0.984808 1645.43 1206.87)" fill="#50E3C2"/>
</g>
<g id="Star Copy 4">
<use xlink:href="#path7_fill" transform="matrix(0.939693 0.34202 -0.34202 0.939693 1648.5 1477.78)" fill="#50E3C2"/>
</g>
</g>
</g>
</g>
</g>
<defs>
<filter id="filter0_d" filterUnits="userSpaceOnUse" x="1406" y="1213" width="241" height="300" color-interpolation-filters="sRGB">
<feFlood flood-opacity="0" result="BackgroundImageFix"/>
<feColorMatrix in="SourceAlpha" type="matrix" values="0 0 0 0 0 0 0 0 0 0 0 0 0 0 0 0 0 0 255 0"/>
<feOffset dx="0" dy="2"/>
<feGaussianBlur stdDeviation="2"/>
<feColorMatrix type="matrix" values="0 0 0 0 0 0 0 0 0 0 0 0 0 0 0 0 0 0 0.209069 0"/>
<feBlend mode="normal" in2="BackgroundImageFix" result="effect1_dropShadow"/>
<feBlend mode="normal" in="SourceGraphic" in2="effect1_dropShadow" result="shape"/>
</filter>
<linearGradient id="paint0_linear" x1="0" y1="0" x2="1" y2="0" gradientUnits="userSpaceOnUse" gradientTransform="matrix(92.7804 2.82088 -125.961 2.0778 92.7804 1.33473)">
<stop offset="0" stop-color="#FF9966"/>
<stop offset="1" stop-color="#FF5E62"/>
</linearGradient>
<linearGradient id="paint1_linear" x1="0" y1="0" x2="1" y2="0" gradientUnits="userSpaceOnUse" gradientTransform="matrix(35.9973 65.5213 -48.8707 48.2617 35.9973 31.0022)">
<stop offset="0" stop-color="#FF9966"/>
<stop offset="1" stop-color="#FF5E62"/>
</linearGradient>
<linearGradient id="paint2_linear" x1="0" y1="0" x2="1" y2="0" gradientUnits="userSpaceOnUse" gradientTransform="matrix(106.461 109.312 -144.534 80.5171 106.461 51.7223)">
<stop offset="0" stop-color="#FF9966"/>
<stop offset="1" stop-color="#FF5E62"/>
</linearGradient>
<linearGradient id="paint3_linear" x1="0" y1="0" x2="1" y2="0" gradientUnits="userSpaceOnUse" gradientTransform="matrix(14.244 18.3846 -19.3379 13.5417 14.244 8.69889)">
<stop offset="0" stop-color="#FF9966"/>
<stop offset="1" stop-color="#FF5E62"/>
</linearGradient>
<linearGradient id="paint4_linear" x1="0" y1="0" x2="1" y2="0" gradientUnits="userSpaceOnUse" gradientTransform="matrix(17.2466 22.26 -23.4143 16.3963 17.2466 10.5326)">
<stop offset="0" stop-color="#FF9966"/>
<stop offset="1" stop-color="#FF5E62"/>
</linearGradient>
<linearGradient id="paint5_linear" x1="0" y1="0" x2="1" y2="0" gradientUnits="userSpaceOnUse" gradientTransform="matrix(14.2232 18.3578 -19.3097 13.522 14.2232 8.68619)">
<stop offset="0" stop-color="#FF9966"/>
<stop offset="1" stop-color="#FF5E62"/>
</linearGradient>
<linearGradient id="paint6_linear" x1="0" y1="0" x2="1" y2="0" gradientUnits="userSpaceOnUse" gradientTransform="matrix(14.244 18.3846 -19.3379 13.5417 14.244 8.69889)">
<stop offset="0" stop-color="#FF9966"/>
<stop offset="1" stop-color="#FF5E62"/>
</linearGradient>
<linearGradient id="paint7_linear" x1="0" y1="0" x2="1" y2="0" gradientUnits="userSpaceOnUse" gradientTransform="matrix(185.399 -127.809 101.772 232.831 -6.45528 236.217)">
<stop offset="0" stop-color="#47F5CE"/>
<stop offset="1" stop-color="#2CC6AE"/>
</linearGradient>
<path id="path0_stroke" d="M -0.31345 13.9965L 185.247 18.1521L 185.874 -9.84088L 0.31345 -13.9965L -0.31345 13.9965Z"/>
<path id="path1_stroke" d="M 60.7724 -8.37035L -11.2222 88.1531L 11.2222 104.894L 83.2167 8.37035L 60.7724 -8.37035Z"/>
<path id="path2_stroke" d="M 0 144.313C -3.1209 157.961 -3.11738 157.961 -3.11307 157.962C -3.11057 157.963 -3.10546 157.964 -3.10047 157.965C -3.09229 157.967 -3.07729 157.971 -3.06098 157.974C -3.03201 157.981 -2.98305 157.992 -2.92543 158.005C -2.81756 158.029 -2.64499 158.068 -2.43214 158.115C -2.02139 158.206 -1.38699 158.345 -0.589612 158.516C 0.974252 158.852 3.3257 159.343 6.25676 159.924C 12.0534 161.072 20.4944 162.64 30.5015 164.218C 50.3748 167.345 77.5666 170.647 104.646 171.112C 131.565 171.554 160.255 169.256 182.983 160.255C 206.373 150.991 225.42 133.548 226.757 104.148L 198.786 102.876C 198.11 117.744 189.554 127.536 172.672 134.222C 155.128 141.171 130.876 143.539 105.106 143.115C 79.4957 142.713 54.2495 139.615 34.8573 136.559C 25.2316 135.044 17.3329 133.575 11.698 132.458C 8.91333 131.907 6.77609 131.459 5.28019 131.138C 4.54769 130.981 4.00945 130.863 3.63002 130.779C 3.44779 130.739 3.32088 130.71 3.22806 130.689C 3.18532 130.68 3.15863 130.674 3.13703 130.669C 3.12806 130.667 3.12405 130.666 3.11953 130.665C 3.11818 130.665 3.11853 130.665 3.11784 130.665C 3.11897 130.665 3.1209 130.665 0 144.313ZM 226.757 104.148C 229.084 52.9747 199.794 22.9118 171.646 6.46721C 157.848 -1.52745 143.439 -6.80164 133.365 -9.72474C 128.182 -11.2193 123.627 -12.2773 120.645 -12.8942C 119.086 -13.2152 117.758 -13.4603 116.932 -13.6039C 116.487 -13.6811 116.097 -13.745 115.868 -13.7812C 115.739 -13.8018 115.617 -13.8206 115.551 -13.8305C 115.511 -13.8367 115.469 -13.8429 115.449 -13.846C 115.435 -13.848 115.418 -13.8504 115.411 -13.8514C 115.406 -13.8522 115.399 -13.8532 115.396 -13.8536C 115.39 -13.8546 115.384 -13.8555 113.377 0C 111.371 13.8555 111.365 13.8547 111.36 13.854C 111.359 13.8538 111.355 13.8531 111.353 13.8528C 111.353 13.8529 111.342 13.8513 111.344 13.8515C 111.339 13.8508 111.344 13.8515 111.353 13.8529C 111.387 13.8581 111.413 13.8621 111.479 13.8726C 111.642 13.8984 111.832 13.9294 112.143 13.9836C 112.83 14.1025 113.72 14.2657 114.981 14.5271C 117.639 15.0751 121.133 15.8788 125.582 17.1718C 134.773 19.8236 145.968 23.8271 157.522 30.6436C 180.077 43.8213 200.485 65.5147 198.786 102.876L 226.757 104.148Z"/>
<path id="path3_fill" fill-rule="evenodd" d="M 14.977 22.4571L 6.17373 27.0835L 7.855 17.2846L 0.733026 10.345L 10.5754 8.91533L 14.977 0L 19.3786 8.91533L 29.2209 10.345L 22.099 17.2846L 23.7802 27.0835L 14.977 22.4571Z"/>
<path id="path4_fill" fill-rule="evenodd" d="M 18.1341 27.191L 7.47515 32.7926L 9.51083 20.9281L 0.887546 12.5257L 12.8046 10.7947L 18.1341 0L 23.4636 10.7947L 35.3807 12.5257L 26.7574 20.9281L 28.7931 32.7926L 18.1341 27.191Z"/>
<path id="path5_fill" fill-rule="evenodd" d="M 14.9551 22.4243L 6.16472 27.0439L 7.84354 17.2594L 0.731956 10.3299L 10.5599 8.90232L 14.9551 0L 19.3503 8.90232L 29.1783 10.3299L 22.0667 17.2594L 23.7455 27.0439L 14.9551 22.4243Z"/>
<path id="path6_stroke" d="M 0 0L 0.353364 -15.496L -15.5 -15.8575L -15.5 0L 0 0ZM 0 273.896L -15.5 273.896L -15.5 288.11L -1.33833 289.338L 0 273.896ZM -15.5 0L -15.5 273.896L 15.5 273.896L 15.5 0L -15.5 0ZM 0 273.896C -1.33833 289.338 -1.33258 289.338 -1.326 289.339C -1.32268 289.339 -1.31524 289.34 -1.30861 289.34C -1.29863 289.341 -1.27869 289.343 -1.25875 289.344C -1.22546 289.347 -1.16554 289.352 -1.09927 289.358C -0.980006 289.367 -0.781134 289.383 -0.545512 289.401C -0.101262 289.435 0.602706 289.486 1.46633 289.542C 3.13788 289.65 5.69228 289.795 8.82971 289.921C 14.9866 290.166 24.0584 290.355 34.7031 290.12C 55.7375 289.641 84.8686 287.354 113.564 280.497C 142.152 273.571 173.102 260.851 195.857 240.784C 219.66 219.468 235.372 189.507 235.372 148.983L 204.372 148.983C 204.372 180.443 192.6 202.087 175.177 217.69C 156.706 234.542 132.688 244.051 106.308 250.358C 80.0353 256.733 54.1984 258.68 34.0069 259.127C 24.0386 259.355 15.9329 259.18 10.0655 258.945C 7.19084 258.831 5.02143 258.707 3.4722 258.607C 2.72543 258.559 2.19477 258.52 1.80698 258.491C 1.62659 258.477 1.51009 258.468 1.41799 258.46C 1.37858 258.457 1.35883 258.455 1.33885 258.453C 1.33216 258.453 1.33207 258.453 1.32869 258.453C 1.32863 258.453 1.33105 258.453 1.33102 258.453C 1.33426 258.453 1.33833 258.453 0 273.896ZM 235.372 148.983C 235.372 66.7179 171.829 25.7548 115.059 5.87411C 86.4459 -4.09834 57.4034 -9.55498 36.3824 -12.3339C 25.7441 -13.7338 16.6792 -14.537 10.5234 -14.966C 7.38632 -15.1837 4.83203 -15.3184 3.16034 -15.3931C 2.29646 -15.4316 1.59203 -15.4577 1.1476 -15.4726C 0.911771 -15.4804 0.712571 -15.4864 0.593196 -15.4897C 0.526804 -15.4916 0.46669 -15.4932 0.433336 -15.494C 0.413333 -15.4945 0.393301 -15.495 0.383287 -15.4953C 0.376622 -15.4954 0.369132 -15.4956 0.3658 -15.4957C 0.359164 -15.4958 0.353364 -15.496 0 0C -0.353364 15.496 -0.357487 15.4959 -0.360774 15.4958C -0.360758 15.4958 -0.363228 15.4957 -0.363209 15.4957C -0.359856 15.4958 -0.359863 15.4958 -0.353236 15.496C -0.333329 15.4965 -0.313763 15.497 -0.274473 15.4981C -0.182485 15.5007 -0.0663162 15.5041 0.113872 15.5102C 0.501472 15.5231 1.03168 15.5426 1.77819 15.576C 3.32728 15.6451 5.4968 15.7587 8.37183 15.9593C 14.2403 16.3669 22.3529 17.0801 32.3276 18.3998C 52.5325 21.06 78.458 25.8548 104.813 35.1319C 157.979 53.7503 204.372 87.2786 204.372 148.983L 235.372 148.983Z"/>
<path id="path7_fill" fill-rule="evenodd" d="M 16.3765 24.6658L 6.75062 29.7472L 8.58899 18.9846L 0.801521 11.3624L 11.5635 9.79217L 16.3765 0L 21.1894 9.79217L 31.9514 11.3624L 24.1639 18.9846L 26.0023 29.7472L 16.3765 24.6658Z"/>
</defs>
</svg>
