<svg width="1071" height="4536" viewBox="0 0 1071 4536" version="1.1" xmlns="http://www.w3.org/2000/svg" xmlns:xlink="http://www.w3.org/1999/xlink">
<title>line-story</title>
<desc>Created using Figma</desc>
<g id="Canvas" transform="translate(-569 396)">
<g id="line-story" filter="url(#filter0_d)">
<use xlink:href="#path0_stroke" transform="translate(606 -360)" fill="#05DFE0"/>
</g>
</g>
<defs>
<filter id="filter0_d" filterUnits="userSpaceOnUse" x="569" y="-396" width="1071" height="4685" color-interpolation-filters="sRGB">
<feFlood flood-opacity="0" result="BackgroundImageFix"/>
<feColorMatrix in="SourceAlpha" type="matrix" values="0 0 0 0 0 0 0 0 0 0 0 0 0 0 0 0 0 0 255 0"/>
<feOffset dx="8" dy="10"/>
<feGaussianBlur stdDeviation="22"/>
<feColorMatrix type="matrix" values="0 0 0 0 0 0 0 0 0 0 0 0 0 0 0 0 0 0 0.5 0"/>
<feBlend mode="normal" in2="BackgroundImageFix" result="effect1_dropShadow"/>
<feBlend mode="normal" in="SourceGraphic" in2="effect1_dropShadow" result="shape"/>
</filter>
<path id="path0_stroke" d="M 491.014 0.272054L 491.286 -0.690228L 489.361 -1.23434L 489.089 -0.272054L 491.014 0.272054ZM 165 4593.5L 165 4594.5L 167 4594.5L 167 4593.5L 165 4593.5ZM 489.089 -0.272054C 478.454 37.3444 477.955 68.5404 485.319 95.0961C 492.684 121.655 507.891 143.484 528.518 162.405C 569.713 200.191 632.702 226.508 698.438 255.831C 764.259 285.192 832.935 317.601 885.9 367.561C 938.82 417.48 976.083 484.949 979 584.529L 981 584.471C 978.066 484.338 940.562 416.373 887.273 366.107C 834.029 315.883 765.053 283.356 699.252 254.005C 633.367 224.615 570.764 198.441 529.87 160.931C 509.453 142.203 494.49 120.683 487.247 94.5617C 480.002 68.4376 480.454 37.6238 491.014 0.272054L 489.089 -0.272054ZM 979 584.529C 981.913 683.927 922.411 769.028 831.165 846.448C 739.927 923.862 617.151 993.427 493.903 1061.78C 370.701 1130.12 247.021 1197.24 154.155 1269.74C 61.3169 1342.21 -1 1420.26 -1 1510.5L 1 1510.5C 1 1421.24 62.6459 1343.71 155.386 1271.32C 248.099 1198.94 371.613 1131.9 494.873 1063.53C 618.088 995.195 741.044 925.537 832.459 847.973C 923.866 770.416 983.939 684.785 981 584.471L 979 584.529ZM -1 1510.5C -1 1600.78 60.6359 1668.72 152.598 1725.72C 244.572 1782.73 367.175 1828.98 489.643 1875.79C 612.168 1922.63 734.562 1970.05 826.332 2029.39C 918.103 2088.73 979 2159.83 979 2254L 981 2254C 981 2158.81 919.397 2087.18 827.418 2027.71C 735.438 1968.23 612.832 1920.75 490.357 1873.93C 367.825 1827.08 245.428 1780.9 153.652 1724.02C 61.8641 1667.13 1 1599.72 1 1510.5L -1 1510.5ZM 979 2254C 979 2348.15 918.128 2414.75 826.366 2468.99C 734.592 2523.25 612.207 2564.98 489.659 2609.48C 367.176 2653.95 244.548 2701.19 152.546 2766.46C 60.506 2831.75 -1 2915.17 -1 3032L 1 3032C 1 2916.03 61.994 2833.15 153.704 2768.09C 245.452 2703 367.824 2655.85 490.341 2611.36C 612.793 2566.89 735.408 2525.09 827.384 2470.72C 919.372 2416.33 981 2349.21 981 2254L 979 2254ZM -1 3032C -1 3090.39 14.3664 3137.77 41.2841 3177.1C 68.193 3216.41 106.609 3247.63 152.631 3273.77C 244.635 3326.02 367.285 3358.08 489.719 3393.87C 612.236 3429.68 734.571 3469.23 826.284 3536.4C 917.925 3603.52 979 3698.22 979 3844.5L 981 3844.5C 981 3697.53 919.575 3602.25 827.466 3534.78C 735.429 3467.38 612.764 3427.75 490.281 3391.95C 367.715 3356.12 245.365 3324.13 153.619 3272.03C 107.766 3245.99 69.6195 3214.96 42.9346 3175.97C 16.2586 3136.99 1 3090.01 1 3032L -1 3032ZM 979 3844.5C 979 3990.85 928.24 4082.84 852.176 4145.54C 776.043 4208.3 674.484 4241.79 572.725 4270.91C 471.056 4300.02 369.132 4324.77 292.677 4370.14C 254.422 4392.84 222.49 4420.72 200.126 4456.94C 177.758 4493.16 165 4537.65 165 4593.5L 167 4593.5C 167 4537.97 179.68 4493.85 201.827 4457.99C 223.979 4422.12 255.64 4394.44 293.698 4371.86C 369.868 4326.66 471.444 4301.98 573.275 4272.84C 675.016 4243.71 776.957 4210.14 853.449 4147.08C 930.01 4083.97 981 3991.4 981 3844.5L 979 3844.5Z"/>
</defs>
</svg>
