<svg width="320" height="1856" viewBox="0 0 320 1856" version="1.1" xmlns="http://www.w3.org/2000/svg" xmlns:xlink="http://www.w3.org/1999/xlink">
<title>Line 2 Copy 2</title>
<desc>Created using Figma</desc>
<g id="Canvas" transform="translate(-663 -399)">
<g id="Line 2 Copy 2" filter="url(#filter0_d)">
<use xlink:href="#path0_stroke" transform="translate(608 437)" fill="#05DFE0"/>
</g>
</g>
<defs>
<filter id="filter0_d" filterUnits="userSpaceOnUse" x="569" y="399" width="537" height="1856" color-interpolation-filters="sRGB">
<feFlood flood-opacity="0" result="BackgroundImageFix"/>
<feColorMatrix in="SourceAlpha" type="matrix" values="0 0 0 0 0 0 0 0 0 0 0 0 0 0 0 0 0 0 255 0"/>
<feOffset dx="8" dy="10"/>
<feGaussianBlur stdDeviation="22"/>
<feColorMatrix type="matrix" values="0 0 0 0 0 0 0 0 0 0 0 0 0 0 0 0 0 0 0.5 0"/>
<feBlend mode="normal" in2="BackgroundImageFix" result="effect1_dropShadow"/>
<feBlend mode="normal" in="SourceGraphic" in2="effect1_dropShadow" result="shape"/>
</filter>
<path id="path0_stroke" d="M 214.649 0.813341L 215.462 -2.0743L 209.687 -3.70098L 208.873 -0.813341L 214.649 0.813341ZM 424.021 1272.41L 427.021 1272.34L 426.998 1271.29L 426.32 1270.48L 424.021 1272.41ZM 7 1760.5L 7 1763.5L 13 1763.5L 13 1760.5L 7 1760.5ZM 208.873 -0.813341C 206.696 6.91768 207.011 13.3386 209.751 18.586C 212.468 23.7886 217.301 27.3179 223.082 29.8557C 228.858 32.3917 235.876 34.0672 243.395 35.3934C 250.918 36.7203 259.18 37.7344 267.41 38.8645C 284.065 41.1516 300.65 43.9362 313.116 50.6297C 319.287 53.9435 324.336 58.1612 327.872 63.6593C 331.399 69.1429 333.542 76.0858 333.62 85.0536L 339.62 85.001C 339.533 75.0602 337.139 66.9764 332.918 60.4136C 328.706 53.8653 322.795 49.017 315.954 45.3436C 302.395 38.0628 284.745 35.1886 268.226 32.9203C 259.87 31.7728 251.811 30.7851 244.437 29.4846C 237.06 28.1834 230.605 26.6059 225.494 24.3618C 220.386 22.1196 216.915 19.3417 215.07 15.8086C 213.248 12.3202 212.744 7.57675 214.649 0.813341L 208.873 -0.813341ZM 333.62 85.0536C 333.77 102.171 320.521 115.706 298.456 128.812C 276.486 141.861 247.295 153.645 217.455 167.947C 158.409 196.249 97.3867 234.208 97.3867 309.599L 103.387 309.599C 103.387 238.261 160.813 201.751 220.049 173.358C 249.35 159.313 279.259 147.193 301.52 133.97C 323.686 120.805 339.801 105.701 339.62 85.001L 333.62 85.0536ZM 97.3867 309.599C 97.3867 347.767 119.797 373.263 152.399 392.443C 184.879 411.55 228.091 424.766 270.789 438.273C 313.699 451.847 356.122 465.723 387.845 486.106C 419.418 506.394 440 532.859 440 571.684L 446 571.684C 446 530.172 423.755 502.049 391.088 481.059C 358.571 460.165 315.341 446.073 272.598 432.552C 229.642 418.964 187.201 405.955 155.441 387.271C 123.803 368.659 103.387 344.796 103.387 309.599L 97.3867 309.599ZM 440 571.684C 440 610.361 413.339 643.825 371.994 674.491C 330.733 705.094 275.622 732.342 220.209 758.767C 164.935 785.125 109.325 810.679 67.5846 837.791C 46.7016 851.355 29.1164 865.416 16.7288 880.308C 4.32341 895.221 -3 911.13 -3 928.298L 3 928.298C 3 912.953 9.52034 898.355 21.3415 884.145C 33.1805 869.913 50.2047 856.234 70.8529 842.822C 112.175 815.982 167.315 790.637 222.791 764.182C 278.128 737.794 333.767 710.315 375.568 679.31C 417.286 648.368 446 613.343 446 571.684L 440 571.684ZM -3 928.298C -3 945.297 3.2942 962.697 14.0895 980.12C 24.8891 997.55 40.2936 1015.17 58.7743 1032.65C 95.7309 1067.63 145.318 1102.4 195.961 1134.44C 246.616 1166.5 298.489 1195.93 340.005 1220.15C 360.783 1232.28 378.946 1243.09 393.107 1252.29C 407.382 1261.57 417.239 1268.99 421.723 1274.34L 426.32 1270.48C 421.173 1264.35 410.557 1256.48 396.377 1247.26C 382.082 1237.97 363.808 1227.1 343.029 1214.97C 301.429 1190.69 249.705 1161.35 199.169 1129.37C 148.622 1097.39 99.4267 1062.86 62.8983 1028.3C 44.6364 1011.01 29.6228 993.798 19.1898 976.96C 8.75267 960.115 3 943.812 3 928.298L -3 928.298ZM 421.022 1272.47C 422.12 1323.61 397.289 1374.12 358.867 1422.7C 320.47 1471.24 268.783 1517.5 216.79 1560.05C 164.972 1602.47 112.512 1641.47 73.3706 1674.95C 53.7503 1691.73 37.2593 1707.3 25.6543 1721.45C 14.1405 1735.48 7 1748.63 7 1760.5L 13 1760.5C 13 1750.84 18.9376 1739.1 30.293 1725.26C 41.5572 1711.53 57.7266 1696.23 77.2707 1679.51C 116.459 1645.99 168.343 1607.46 220.59 1564.7C 272.662 1522.07 324.761 1475.49 363.573 1426.42C 402.36 1377.38 428.162 1325.51 427.021 1272.34L 421.022 1272.47Z"/>
</defs>
</svg>
