<svg width="865" height="313" viewBox="0 0 865 313" version="1.1" xmlns="http://www.w3.org/2000/svg" xmlns:xlink="http://www.w3.org/1999/xlink">
<title>Group</title>
<desc>Created using Figma</desc>
<g id="Canvas" transform="translate(4697 -538)">
<g id="Group">
<g id="ARbre_illus">
<g id="Fill 4">
<use xlink:href="#path0_fill" transform="translate(-4648.67 567.741)" fill="#FFFFFF"/>
</g>
<g id="Fill 6">
<use xlink:href="#path1_fill" transform="translate(-4613.74 563.424)" fill="#FFFFFF"/>
</g>
<g id="Fill 8">
<use xlink:href="#path2_fill" transform="translate(-4619.01 553.35)" fill="#FFFFFF"/>
</g>
<g id="Fill 10">
<use xlink:href="#path3_fill" transform="translate(-4586.95 548.553)" fill="#FFFFFF"/>
</g>
<g id="Fill 12">
<use xlink:href="#path4_fill" transform="translate(-4586.95 583.091)" fill="#FFFFFF"/>
</g>
<g id="Fill 14">
<use xlink:href="#path5_fill" transform="translate(-4684.08 591.726)" fill="#FFFFFF"/>
</g>
<g id="Fill 16">
<use xlink:href="#path6_fill" transform="translate(-4584.56 606.117)" fill="#FFFFFF"/>
</g>
<g id="Fill 18">
<use xlink:href="#path7_fill" transform="translate(-4657.76 670.396)" fill="#FFFFFF"/>
</g>
<g id="Fill 20">
<use xlink:href="#path8_fill" transform="translate(-4599.39 597.003)" fill="#FFFFFF"/>
</g>
<g id="Fill 22">
<use xlink:href="#path9_fill" transform="translate(-4606.09 583.571)" fill="#FFFFFF"/>
</g>
<g id="Fill 24">
<use xlink:href="#path10_fill" transform="translate(-4598.91 614.272)" fill="#FFFFFF"/>
</g>
<g id="Fill 26">
<use xlink:href="#path11_fill" transform="translate(-4567.81 609.955)" fill="#FFFFFF"/>
</g>
<g id="Fill 28">
<use xlink:href="#path12_fill" transform="translate(-4608.48 573.977)" fill="#FFFFFF"/>
</g>
<g id="Fill 30">
<use xlink:href="#path13_fill" transform="translate(-4677.38 605.158)" fill="#FFFFFF"/>
</g>
<g id="Fill 32">
<use xlink:href="#path14_fill" transform="translate(-4633.36 618.109)" fill="#FFFFFF"/>
</g>
<g id="Fill 34">
<use xlink:href="#path15_fill" transform="translate(-4629.06 632.021)" fill="#FFFFFF"/>
</g>
<g id="Fill 36">
<use xlink:href="#path16_fill" transform="translate(-4641.02 581.173)" fill="#FFFFFF"/>
</g>
<g id="Fill 38">
<use xlink:href="#path17_fill" transform="translate(-4659.68 597.003)" fill="#FFFFFF"/>
</g>
<g id="Fill 40">
<use xlink:href="#path18_fill" transform="translate(-4654.89 621.947)" fill="#FFFFFF"/>
</g>
<g id="Fill 42">
<use xlink:href="#path19_fill" transform="translate(-4633.36 591.726)" fill="#FFFFFF"/>
</g>
<g id="Fill 44">
<use xlink:href="#path20_fill" transform="translate(-4651.54 584.531)" fill="#FFFFFF"/>
</g>
<g id="Fill 46">
<use xlink:href="#path21_fill" transform="translate(-4629.06 644.013)" fill="#FFFFFF"/>
</g>
<g id="Fill 48">
<use xlink:href="#path22_fill" transform="translate(-4646.28 615.231)" fill="#FFFFFF"/>
</g>
<g id="Fill 50">
<use xlink:href="#path23_fill" transform="translate(-4642.93 627.224)" fill="#FFFFFF"/>
</g>
<g id="Fill 52">
<use xlink:href="#path24_fill" transform="translate(-4641.02 606.597)" fill="#FFFFFF"/>
</g>
<g id="Fill 54">
<use xlink:href="#path25_fill" transform="translate(-4675.47 619.069)" fill="#FFFFFF"/>
</g>
<g id="Fill 56">
<use xlink:href="#path26_fill" transform="translate(-4622.84 582.132)" fill="#FFFFFF"/>
</g>
<g id="Fill 58">
<use xlink:href="#path27_fill" transform="translate(-4630.97 570.14)" fill="#FFFFFF"/>
</g>
<g id="Fill 60">
<use xlink:href="#path28_fill" transform="translate(-4630.97 563.904)" fill="#FFFFFF"/>
</g>
<g id="Fill 62">
<use xlink:href="#path29_fill" transform="translate(-4624.27 572.058)" fill="#FFFFFF"/>
</g>
<g id="Fill 64">
<use xlink:href="#path30_fill" transform="translate(-4645.8 556.228)" fill="#FFFFFF"/>
</g>
<g id="Fill 66">
<use xlink:href="#path31_fill" transform="translate(-4647.24 600.84)" fill="#FFFFFF"/>
</g>
<g id="Fill 68">
<use xlink:href="#path32_fill" transform="translate(-4626.66 545.195)" fill="#FFFFFF"/>
</g>
<g id="Fill 70">
<use xlink:href="#path33_fill" transform="translate(-4660.64 609.955)" fill="#FFFFFF"/>
</g>
<g id="Fill 72">
<use xlink:href="#path34_fill" transform="translate(-4663.98 629.622)" fill="#FFFFFF"/>
</g>
<g id="Fill 74">
<use xlink:href="#path35_fill" transform="translate(-4560.15 636.338)" fill="#FFFFFF"/>
</g>
<g id="Fill 76">
<use xlink:href="#path36_fill" transform="translate(-4620.44 615.231)" fill="#FFFFFF"/>
</g>
<g id="Fill 78">
<use xlink:href="#path37_fill" transform="translate(-4540.06 691.503)" fill="#FFFFFF"/>
</g>
<g id="Fill 80">
<use xlink:href="#path38_fill" transform="translate(-4585.51 649.769)" fill="#FFFFFF"/>
</g>
<g id="Fill 82">
<use xlink:href="#path39_fill" transform="translate(-4523.79 616.191)" fill="#FFFFFF"/>
</g>
<g id="Fill 84">
<use xlink:href="#path40_fill" transform="translate(-4574.99 629.622)" fill="#FFFFFF"/>
</g>
<g id="Fill 86">
<use xlink:href="#path41_fill" transform="translate(-4598.91 630.581)" fill="#FFFFFF"/>
</g>
<g id="Fill 88">
<use xlink:href="#path42_fill" transform="translate(-4615.18 587.888)" fill="#FFFFFF"/>
</g>
<g id="Fill 90">
<use xlink:href="#path43_fill" transform="translate(-4624.75 599.401)" fill="#FFFFFF"/>
</g>
<g id="Fill 92">
<use xlink:href="#path44_fill" transform="translate(-4560.63 664.64)" fill="#FFFFFF"/>
</g>
<g id="Fill 94">
<use xlink:href="#path45_fill" transform="translate(-4670.21 689.104)" fill="#FFFFFF"/>
</g>
<g id="Fill 96">
<use xlink:href="#path46_fill" transform="translate(-4560.63 693.422)" fill="#FFFFFF"/>
</g>
<g id="Fill 98">
<use xlink:href="#path47_fill" transform="translate(-4550.11 678.071)" fill="#FFFFFF"/>
</g>
<g id="Fill 100">
<use xlink:href="#path48_fill" transform="translate(-4538.62 674.234)" fill="#FFFFFF"/>
</g>
<g id="Fill 102">
<use xlink:href="#path49_fill" transform="translate(-4533.84 667.518)" fill="#FFFFFF"/>
</g>
<g id="Fill 104">
<use xlink:href="#path50_fill" transform="translate(-4578.82 672.315)" fill="#FFFFFF"/>
</g>
<g id="Fill 106">
<use xlink:href="#path51_fill" transform="translate(-4679.3 670.396)" fill="#FFFFFF"/>
</g>
<g id="Fill 108">
<use xlink:href="#path52_fill" transform="translate(-4632.41 668.478)" fill="#FFFFFF"/>
</g>
<g id="Fill 110">
<use xlink:href="#path53_fill" transform="translate(-4612.79 625.784)" fill="#FFFFFF"/>
</g>
<g id="Fill 112">
<use xlink:href="#path54_fill" transform="translate(-4682.17 644.493)" fill="#FFFFFF"/>
</g>
<g id="Fill 114">
<use xlink:href="#path55_fill" transform="translate(-4653.94 635.378)" fill="#FFFFFF"/>
</g>
<g id="Fill 116">
<use xlink:href="#path56_fill" transform="translate(-4648.67 659.363)" fill="#FFFFFF"/>
</g>
<g id="Fill 118">
<use xlink:href="#path57_fill" transform="translate(-4671.64 646.891)" fill="#FFFFFF"/>
</g>
<g id="Fill 120">
<use xlink:href="#path58_fill" transform="translate(-4654.42 651.688)" fill="#FFFFFF"/>
</g>
<g id="Fill 122">
<use xlink:href="#path59_fill" transform="translate(-4561.59 572.058)" fill="#FFFFFF"/>
</g>
<g id="Fill 124">
<use xlink:href="#path60_fill" transform="translate(-4545.32 614.272)" fill="#FFFFFF"/>
</g>
<g id="Fill 126">
<use xlink:href="#path61_fill" transform="translate(-4545.8 583.571)" fill="#FFFFFF"/>
</g>
<g id="Fill 128">
<use xlink:href="#path62_fill" transform="translate(-4559.2 628.663)" fill="#FFFFFF"/>
</g>
<g id="Fill 130">
<use xlink:href="#path63_fill" transform="translate(-4538.62 600.84)" fill="#FFFFFF"/>
</g>
<g id="Fill 132">
<use xlink:href="#path64_fill" transform="translate(-4563.5 592.206)" fill="#FFFFFF"/>
</g>
<g id="Fill 134">
<use xlink:href="#path65_fill" transform="translate(-4586.47 567.741)" fill="#FFFFFF"/>
</g>
<g id="Fill 138">
<use xlink:href="#path66_fill" transform="translate(-4562.07 551.432)" fill="#FFFFFF"/>
</g>
<g id="Fill 140">
<use xlink:href="#path67_fill" transform="translate(-4582.16 594.125)" fill="#FFFFFF"/>
</g>
<g id="Fill 142">
<use xlink:href="#path68_fill" transform="translate(-4580.25 538)" fill="#FFFFFF"/>
</g>
<g id="Fill 144">
<use xlink:href="#path69_fill" transform="translate(-4578.34 561.505)" fill="#FFFFFF"/>
</g>
<g id="Fill 146">
<use xlink:href="#path70_fill" transform="translate(-4576.9 577.335)" fill="#FFFFFF"/>
</g>
<g id="Fill 148">
<use xlink:href="#path71_fill" transform="translate(-4521.88 597.962)" fill="#FFFFFF"/>
</g>
<g id="Fill 150">
<use xlink:href="#path72_fill" transform="translate(-4523.79 642.094)" fill="#FFFFFF"/>
</g>
<g id="Fill 152">
<use xlink:href="#path73_fill" transform="translate(-4525.23 667.038)" fill="#FFFFFF"/>
</g>
<g id="Fill 154">
<use xlink:href="#path74_fill" transform="translate(-4545.32 619.548)" fill="#FFFFFF"/>
</g>
<g id="Fill 156">
<use xlink:href="#path75_fill" transform="translate(-4549.15 595.084)" fill="#FFFFFF"/>
</g>
<g id="Fill 158">
<use xlink:href="#path76_fill" transform="translate(-4530.01 625.784)" fill="#FFFFFF"/>
</g>
<g id="Fill 160">
<use xlink:href="#path77_fill" transform="translate(-4553.46 607.556)" fill="#FFFFFF"/>
</g>
<g id="Fill 162">
<use xlink:href="#path78_fill" transform="translate(-4541.02 643.054)" fill="#FFFFFF"/>
</g>
<g id="Fill 164">
<use xlink:href="#path79_fill" transform="translate(-4553.93 661.282)" fill="#FFFFFF"/>
</g>
<g id="Fill 166">
<use xlink:href="#path80_fill" transform="translate(-4544.36 654.087)" fill="#FFFFFF"/>
</g>
<g id="Fill 168">
<use xlink:href="#path81_fill" transform="translate(-4527.14 659.363)" fill="#FFFFFF"/>
</g>
<g id="Fill 170">
<use xlink:href="#path82_fill" transform="translate(-4654.42 629.622)" fill="#E7EB96"/>
</g>
<g id="Group 174">
<mask id="mask0_outline" mask-type="alpha">
<g id="Clip 173">
<use xlink:href="#path83_fill" transform="translate(-4697 552.217)" fill="#FFFFFF"/>
</g>
</mask>
<g id="Fill 172" mask="url(#mask0_outline)">
<use xlink:href="#path84_fill" transform="translate(-4697 552.217)" fill="#FFFFFF"/>
</g>
</g>
</g>
<g id="Path 10">
<use xlink:href="#path85_fill" transform="translate(-4684 743.196)" fill="#FFFFFF"/>
</g>
<g id="Rectangle 2">
<use xlink:href="#path86_fill" transform="translate(-4697 787)" fill="#FFFFFF"/>
</g>
</g>
</g>
<defs>
<path id="path0_fill" fill-rule="evenodd" d="M 11.5786 3.68368C 9.10201 2.78645 4.76766 1.93787 5.16222 2.08346C 5.30693 2.25036 8.05316 2.86608 11.962 5.05306C 10.3933 4.82744 7.72415 5.27666 7.28424 5.27666C 4.81466 5.14878 3.71468 2.92157 0.974641 1.78384C 0.447741 1.58196 0.12451 1.51198 0 1.49066C 0.128221 1.50192 0.478662 1.51319 1.05669 1.42592C 2.97711 1.19748 4.84641 -0.535051 7.20715 0.165926C 10.2238 1.26666 10.5516 2.28173 11.5786 3.68368Z"/>
<path id="path1_fill" fill-rule="evenodd" d="M 17.9216 5.96554C 19.1978 6.88232 21.0859 8.01875 22.963 10.0736C 21.208 9.21373 17.9839 9.19961 17.4223 9.04599C 14.3666 8.09765 13.3617 4.86482 11.4514 2.0144C 11.1937 1.62036 10.9922 1.37082 10.8606 1.22259C 9.40797 2.342 8.98315 4.57666 7.24125 5.52376C 4.54852 6.97948 3.54893 6.86489 1.62269 7.14972C 3.23759 5.00806 6.89345 2.57244 7.19127 2.38103L 7.19373 2.3802C 7.22773 2.35778 7.21872 2.36317 7.19127 2.38103C 7.00364 2.41341 3.96065 3.5623 0 6.9172C 0.764436 5.35643 2.10937 2.27889 2.5854 1.77939C 5.03807 -0.807374 8.30843 0.0745327 11.3379 0.467322C 11.9311 0.55244 12.2711 0.54289 12.394 0.53334C 12.2703 0.55327 11.9233 0.633406 11.3867 0.888345C 11.2052 0.97637 11.0425 1.08516 10.8877 1.20183C 11.0548 1.3185 11.3338 1.48915 11.7599 1.68057C 13.8434 2.62766 16.4682 1.25747 18.7934 2.72856C 21.8692 4.83243 22.1838 6.18726 22.9671 8.26747C 20.2084 6.42393 15.3784 4.21833 15.8278 4.42801C 15.8942 4.50358 16.6464 5.0417 17.9216 5.96554Z"/>
<path id="path2_fill" fill-rule="evenodd" d="M 6.25807 6.35036C 4.38548 8.40251 3.59724 8.64467 2.25583 10.0261C 1.81478 7.48545 4.40833 4.14383 5.04747 3.41485C 5.13718 3.3491 5.18411 3.31124 5.1704 3.29959C 5.22896 3.22053 5.17123 3.27421 5.04747 3.41485C 4.39421 3.89376 1.3405 5.91804 0.87952 11.033C -0.00340766 9.42817 -0.220194 5.30306 0.222931 4.51623C 2.00166 0.377809 5.76428 0.726908 8.92887 0.245909C 9.56386 0.157698 9.9177 0.0486825 10.0481 0C 9.91936 0.060333 9.58047 0.245909 9.09333 0.661998C 7.35986 2.15451 7.64808 4.90985 6.25807 6.35036Z"/>
<path id="path3_fill" fill-rule="evenodd" d="M 0 10.0736C 0.124212 10.0313 0.466636 9.89349 0.973557 9.54864C 2.78177 8.27216 2.46495 5.68055 3.84513 4.30403C 5.75658 2.2919 6.6097 1.97756 8.11619 0.75963C 8.18291 3.33985 5.48171 6.62033 4.97815 7.17744C 4.94122 7.20509 4.91646 7.22583 4.9173 7.23275C 4.87072 7.29009 4.90052 7.26406 4.97815 7.17744C 5.42212 6.84236 8.42588 4.9197 9.63989 0C 10.1019 1.66769 10.1888 5.36946 9.81278 6.12218C 8.10234 9.95001 4.21567 9.85567 1.10071 9.95733C 0.474609 9.97441 0.125471 10.0419 0 10.0736Z"/>
<path id="path4_fill" fill-rule="evenodd" d="M 0 3.69221C 0.859346 2.07325 4.40374 -0.0327829 5.26595 0.0167214C 9.6121 -0.271075 10.9836 3.21647 12.7252 5.82551C 13.0617 6.3516 13.3011 6.61926 13.3975 6.71575C 13.2917 6.62639 12.9923 6.40446 12.4352 6.15149C 10.4212 5.25915 8.18094 6.75435 6.34544 6.17121C 3.7772 5.45171 3.25522 4.85095 1.50018 4.35758C 3.44678 2.69583 7.6561 3.59362 8.41293 3.80632C 8.44928 3.82604 8.47542 3.83989 8.48686 3.84366C 8.57059 3.85793 8.53506 3.84156 8.41293 3.80632C 8.18339 3.68466 7.46087 3.27898 6.19718 2.95762C 4.78277 2.61906 2.4114 2.32455 0 3.69221Z"/>
<path id="path5_fill" fill-rule="evenodd" d="M 6.21934 6.86509C 5.13067 9.50065 4.42135 10.0811 3.40442 11.7399C 2.52548 9.2663 3.87365 5.1824 4.1302 4.50154C 4.15003 4.46764 4.16353 4.44463 4.161 4.43751C 4.18337 4.36972 4.16818 4.39901 4.1302 4.50154C 3.85719 4.95182 1.77945 7.80959 2.21618 12.9518C 1.24735 11.4763 -0.0759231 7.97656 0.00340587 7.15467C 0.230422 3.01721 3.81626 1.69357 6.67801 0.489616C 7.25483 0.256525 7.55274 0.0723962 7.6557 0C 7.55738 0.0811842 7.29028 0.330596 6.94764 0.831929C 5.74927 2.67448 7.02824 5.02631 6.21934 6.86509Z"/>
<path id="path6_fill" fill-rule="evenodd" d="M 0 2.28517C 1.14506 1.24213 4.3581 -0.114067 5.16492 0.007648C 9.15251 0.256442 10.1479 3.72718 10.7289 6.29187C 10.845 6.82288 10.9602 7.10097 11.0051 7.19545C 10.9523 7.10262 10.7779 6.8398 10.391 6.47465C 8.94085 5.19685 6.7836 6.11198 5.35395 5.41469C 3.23023 4.48429 2.70589 3.9178 1.1941 3.18586C 3.25328 2.10239 6.76725 3.3575 7.46217 3.66447C 7.51665 3.7049 7.55228 3.73049 7.55438 3.7243C 7.62898 3.74616 7.58372 3.71811 7.46217 3.66447C 6.97598 3.30386 4.44444 1.3428 0 2.28517Z"/>
<path id="path7_fill" fill-rule="evenodd" d="M 6.82508 4.36764C 5.39662 6.94999 2.89872 6.55372 0.75947 6.63412C 0.3274 6.6452 0.0868197 6.69319 0 6.71575C 0.0856026 6.6854 0.323748 6.58777 0.678735 6.34327C 1.9287 5.46335 1.88772 3.59765 2.93077 2.70009C 4.35721 1.41322 4.92276 1.29097 5.96703 0.500472C 5.95608 2.2792 3.93082 4.37543 3.51336 4.78073C 3.47766 4.80453 3.45332 4.82299 3.45737 4.83078C 3.41599 4.8718 3.44155 4.85047 3.51336 4.78073C 3.8724 4.53952 6.06967 3.4188 7.01008 0C 7.33343 1.17898 7.14153 3.86512 6.82508 4.36764Z"/>
<path id="path8_fill" fill-rule="evenodd" d="M 0.56637 6.51153C -0.310468 7.40307 0.0194063 7.50127 0.310272 6.33692C 0.735123 4.85664 0.0745267 2.72392 1.80191 1.25349C 4.17845 -0.407154 5.10956 0.0180737 6.57067 0.13722C 4.4973 1.03205 1.96812 3.73173 2.27807 3.53247C 2.46251 3.51111 4.04574 1.71693 7.6557 0.658586C 6.59739 1.47823 5.559 3.33157 5.42544 3.59081C 4.41208 4.92894 2.38195 4.77282 0.56637 6.51153Z"/>
<path id="path9_fill" fill-rule="evenodd" d="M 1.28242 3.18455C 0.539161 3.16698 0.125598 3.22623 0 3.24952C 0.131382 3.21846 0.56395 3.09301 1.26383 2.74363C 3.45683 1.80091 5.62049 -0.492353 8.53361 0.0948562C 12.2222 1.07885 12.6573 2.20587 14.1144 3.67818C 11.0856 3.14082 5.85434 2.42203 6.33111 2.64025C 6.56 2.70563 9.78174 3.41665 14.8329 5.24039C 12.9795 5.31926 9.78091 6.16023 9.23927 6.23052C 6.21088 6.37476 4.9735 3.65938 1.28242 3.18455Z"/>
<path id="path10_fill" fill-rule="evenodd" d="M 8.61266 0.81327C 7.66161 1.63587 6.38291 3.42237 6.151 3.68525C 4.72282 4.99085 2.88294 4.34225 0.729144 5.32166C -0.343511 5.83987 -0.0861547 6.04657 0.563499 5.06884C 1.45314 3.81145 1.46687 1.68199 3.20534 0.714742C 5.52721 -0.377032 6.2512 0.0522987 7.60788 0.259836C 5.76921 1.17803 2.84941 3.14901 3.16777 3.02575C 3.33018 2.99598 5.2242 1.87779 8.61266 0.81327Z"/>
<path id="path11_fill" fill-rule="evenodd" d="M 8.61266 5.27666C 7.42433 4.83887 5.24227 4.5788 4.89902 4.50175C 3.05401 3.87848 2.67639 1.95405 0.743181 0.537528C -0.24599 -0.153001 -0.292778 0.171882 0.875678 0.270121C 2.40643 0.444588 4.24027 -0.568379 5.95237 0.489428C 8.06818 1.99889 8.06694 2.84024 8.57746 4.12959C 6.85666 2.95968 3.68378 1.34994 3.95084 1.56965C 4.05891 1.69724 5.9797 2.81905 8.61266 5.27666Z"/>
<path id="path12_fill" fill-rule="evenodd" d="M 3.65137 0.889811C 7.19935 -1.25781 10.4343 0.933027 12.945 2.71681C 13.4495 3.07983 13.763 3.2317 13.8759 3.27944C 13.7572 3.24075 13.4051 3.14733 12.7964 3.12469C 10.5866 3.09917 9.3597 5.45711 7.39035 5.82589C 4.57605 6.42268 3.64888 6.1782 1.6704 6.22388C 3.34743 4.15364 7.51782 2.93865 8.19503 2.77773C 8.22866 2.77773 8.249 2.77649 8.2544 2.77485C 8.31876 2.75344 8.29302 2.75509 8.19503 2.77773C 7.69677 2.78637 4.17786 2.77196 0 5.86046C 0.79596 4.28658 2.92807 1.28863 3.65137 0.889811Z"/>
<path id="path13_fill" fill-rule="evenodd" d="M 1.00443 9.54488C 2.9095 8.46078 2.78216 5.86598 3.94041 4.71625C 5.52943 2.97914 6.21699 2.63746 7.29833 1.17188C 7.72574 2.44549 7.30884 4.37375 6.49646 5.66417C 5.73116 6.98454 4.80616 7.70769 5.01419 7.55797C 5.06798 7.49357 5.88414 7.11416 6.84696 5.94638C 7.77953 4.82166 8.87811 2.67642 8.44145 0C 9.64089 1.29945 10.3864 5.33644 9.89473 6.21217C 8.16996 10.6245 4.06228 10.1433 1.09059 9.96327C 0.479943 9.91241 0.130703 9.93948 0 9.95752C 0.129862 9.9284 0.479102 9.8275 1.00443 9.54488Z"/>
<path id="path14_fill" fill-rule="evenodd" d="M 0 9.59394C 0.0685134 9.48258 0.237682 9.1639 0.414041 8.58972C 1.06027 6.72057 0.20977 4.20355 2.02791 2.34129C 4.55445 0.0728869 5.71495 0.263607 7.57412 0C 5.47346 1.7995 2.61408 5.39727 2.94692 5.10249C 3.17488 5.04337 5.05604 2.79521 9.09114 0.30653C 8.10192 1.62578 7.25481 4.2489 7.05984 4.64897C 5.78896 6.80277 3.10721 6.79913 0.731233 8.82498C 0.291816 9.2214 0.0748573 9.48946 0 9.59394Z"/>
<path id="path15_fill" fill-rule="evenodd" d="M 0 6.23606C 0.089803 6.15802 0.322873 5.92934 0.635304 5.48116C 1.70417 4.05816 1.7426 1.5456 4.05826 0.514446C 7.1596 -0.535483 8.06389 0.241114 9.573 0.903371C 7.00129 1.12788 3.3933 3.32246 3.78551 3.18267C 3.99018 3.25778 6.30334 1.70584 10.5266 1.87151C 9.07553 2.36684 7.36385 4.05608 7.13913 4.29686C 5.58992 5.44068 3.41084 4.65324 0.830364 5.77244C 0.351276 5.99444 0.0939799 6.16637 0 6.23606Z"/>
<path id="path16_fill" fill-rule="evenodd" d="M 0.87298 5.51296C 0.377062 5.61114 0.102462 5.71218 0 5.75636C 0.100003 5.70359 0.362717 5.54282 0.738959 5.19593C 2.05048 4.03579 2.14392 1.72329 4.1485 0.736198C 6.87646 -0.416574 7.77936 0.0493615 9.37163 0.370485C 7.12647 1.32322 3.66447 3.50113 4.0235 3.34037C 4.22555 3.36246 6.48177 2.06651 10.5266 1.05937C 9.3331 1.92579 7.81911 3.89384 7.54042 4.19329C 5.80019 5.63937 3.48331 5.00857 0.87298 5.51296Z"/>
<path id="path17_fill" fill-rule="evenodd" d="M 5.04112 3.62858C 4.92763 3.50506 2.9449 2.32321 0 0C 1.25873 0.348234 3.54879 0.481249 3.93192 0.561801C 5.97181 1.18391 6.40588 3.23036 8.3356 4.76622C 9.33752 5.51846 9.39592 5.17931 8.19063 5.04217C 6.60179 4.8096 4.74249 5.83654 3.01448 4.81497C 0.835423 3.35552 0.752999 2.51076 0.131299 1.19548C 2.01918 2.23233 5.32567 3.8438 5.04112 3.62858Z"/>
<path id="path18_fill" fill-rule="evenodd" d="M 4.41384 3.72679C 4.27381 3.81646 2.77479 5.56748 0 8.06183C 0.5634 6.87562 1.10488 4.62346 1.25141 4.25725C 2.22032 2.34533 4.27543 2.29505 6.10689 0.66302C 7.01409 -0.19259 6.69667 -0.314102 6.34718 0.859115C 5.83574 2.39519 6.49209 4.43575 5.19441 5.96344C 3.39177 7.85777 2.56087 7.78193 1.17835 8.15485C 2.52028 6.47086 4.67322 3.48377 4.41384 3.72679Z"/>
<path id="path19_fill" fill-rule="evenodd" d="M 0.0210227 6.42866C -0.252646 3.3889 2.20199 2.09184 4.09923 0.60356C 5.10841 -0.170329 4.75595 -0.298353 4.36494 0.804623C 3.82095 2.39467 5.11093 4.00646 4.70398 5.55465C 4.16419 7.71628 3.65751 8.20663 3.02719 9.54842C 2.15924 7.69987 2.76986 4.34908 2.8474 3.97773C 2.84865 3.97404 2.85159 3.9646 2.85033 3.96255C 2.85871 3.92193 2.85578 3.93588 2.8474 3.97773C 2.80213 4.1632 1.46816 6.54478 2.21666 10.5533C 1.37847 9.50534 0.0461684 7.02897 0.0210227 6.42866Z"/>
<path id="path20_fill" fill-rule="evenodd" d="M 4.35824 0.774695C 3.73757 2.3432 4.91282 4.0062 4.49718 5.52705C 3.95176 7.67365 3.47362 8.17674 2.86648 9.53307C 2.04397 7.70017 2.64393 4.4235 2.75461 3.91627C 2.76257 3.8968 2.76656 3.88188 2.76616 3.87732C 2.77531 3.82676 2.76934 3.84375 2.75461 3.91627C 2.62482 4.23951 1.39065 6.61941 2.09333 10.5533C 1.28913 9.4937 0.0274869 6.96254 0.0135527 6.34011C -0.203025 3.20682 2.22033 1.89772 4.11937 0.553819C 5.129 -0.143619 4.80334 -0.298605 4.35824 0.774695Z"/>
<path id="path21_fill" fill-rule="evenodd" d="M 0.0197448 8.63454C -0.154574 6.82232 0.865546 2.90945 1.49751 2.26408C 4.39229 -1.15522 8.05673 0.170811 11.2781 0.700076C 11.9309 0.815366 12.3061 0.818238 12.4405 0.812494C 12.3049 0.828905 11.918 0.899474 11.3106 1.14934C 9.17004 2.05729 8.6862 4.7988 6.87977 5.80523C 4.39312 7.27527 3.50779 7.29743 1.72674 8.17831C 2.20518 5.54265 5.88086 3.04484 6.6031 2.59025C 6.66176 2.56645 6.7017 2.54799 6.69837 2.5365C 6.7716 2.48932 6.72334 2.51435 6.6031 2.59025C 6.00235 2.8315 2.3562 3.84572 0.0197448 8.63454Z"/>
<path id="path22_fill" fill-rule="evenodd" d="M 0 1.65085C 0.835871 0.93869 3.06776 -0.0472595 3.6333 0.00175901C 6.43239 0.0599436 7.28319 2.39171 7.86158 4.15598C 8.16384 5.09968 8.36285 4.87173 7.63105 4.30224C 6.51946 3.48965 5.01896 4.21974 3.93846 3.7722C 2.34923 3.1788 1.95078 2.78984 0.852041 2.28212C 2.33969 1.53648 4.91489 2.30563 5.39626 2.48218C 5.42818 2.5025 5.45182 2.51645 5.45389 2.51366C 5.50447 2.52681 5.47504 2.51127 5.39626 2.48218C 5.06581 2.27454 3.19712 0.999664 0 1.65085Z"/>
<path id="path23_fill" fill-rule="evenodd" d="M 0 4.08076C 0.758571 2.73201 3.26222 0.429905 4.02364 0.25232C 7.71614 -0.863988 9.91669 1.95624 11.3851 4.1596C 11.6805 4.60986 11.8865 4.8293 11.962 4.90123C 11.8791 4.83418 11.6248 4.65213 11.1417 4.45056C 9.34948 3.77802 7.70842 5.41936 6.10148 5.26656C 3.75507 5.13368 3.06679 4.77607 1.40541 4.56272C 2.99975 2.90188 6.70484 2.84905 7.43254 2.88521C 7.48983 2.89984 7.52843 2.91 7.53005 2.90309C 7.60319 2.89984 7.55646 2.89131 7.43254 2.88521C 6.88362 2.73811 3.86843 1.79085 0 4.08076Z"/>
<path id="path24_fill" fill-rule="evenodd" d="M 7.6557 0.511496C 6.70623 1.4254 5.72033 3.37533 5.56694 3.65744C 4.49282 5.11765 2.49067 4.93202 0.60387 6.54855C -0.318485 7.38185 -0.00401819 7.50479 0.367109 6.35315C 0.891625 4.87503 0.338374 2.73132 1.98477 1.30612C 4.23865 -0.339716 5.11973 0.0213675 6.55567 0.0596334C 4.6543 1.13596 2.14099 3.8158 2.43887 3.61714C 2.61573 3.58009 4.22004 1.87686 7.6557 0.511496Z"/>
<path id="path25_fill" fill-rule="evenodd" d="M 3.2383 2.93909C 5.05338 1.23384 5.84768 1.12894 7.25094 0.333459C 6.69901 2.74032 3.60734 5.7741 3.91773 5.46922C 3.98617 5.38065 6.55359 3.98763 8.61266 0C 8.55563 1.42853 8.22569 4.41456 7.87538 4.92882C 6.34015 7.75118 3.46274 7.50017 0.883914 7.93118C 0.381264 8.01648 0.101426 8.11362 0 8.15485C 0.098982 8.10383 0.364563 7.9471 0.746642 7.59813C 2.13239 6.39735 1.87699 4.13783 3.2383 2.93909Z"/>
<path id="path26_fill" fill-rule="evenodd" d="M 0.0332914 3.79649C 0.683924 0.300765 4.467 -0.39015 6.79293 0.176902C 8.01498 0.443145 7.85529 0.0896636 6.8374 0.514336C 5.28707 1.29372 5.83265 3.271 5.04901 4.34173C 3.92523 6.06182 3.31229 6.53135 2.37786 7.74857C 1.75433 5.72356 3.34745 2.78172 3.72445 2.24553C 3.76596 2.21055 3.79646 2.1871 3.79815 2.18792C 3.81975 2.12578 3.78714 2.15582 3.72445 2.24553C 3.32034 2.5842 1.26212 4.58493 1.33371 8.63454C 0.639024 7.42349 -0.175538 4.49522 0.0332914 3.79649Z"/>
<path id="path27_fill" fill-rule="evenodd" d="M 0.0333425 3.79618C 0.685197 0.301768 4.46629 -0.389544 6.79332 0.176262C 8.01443 0.443322 7.8556 0.0886136 6.83779 0.514511C 5.28799 1.29306 5.83226 3.27029 5.04911 4.341C 3.92414 6.06229 3.31337 6.53098 2.37816 7.74859C 1.7551 5.72486 3.34641 2.78473 3.7238 2.2469C 3.767 2.2111 3.79707 2.18806 3.79919 2.18847C 3.82079 2.12593 3.78733 2.15596 3.7238 2.2469C 3.31718 2.58721 1.26251 4.58749 1.33366 8.63454C 0.637335 7.4231 -0.175471 4.49408 0.0333425 3.79618Z"/>
<path id="path28_fill" fill-rule="evenodd" d="M 0.607287 4.57581C 1.59931 3.28668 1.84784 0.834726 4.28956 0.146334C 7.4379 -0.366741 8.06698 0.569673 9.3352 1.40389C 6.94796 1.11848 3.26527 2.60701 3.66593 2.57336C 3.84783 2.62862 6.19273 1.54057 10.0481 2.43917C 8.6399 2.6631 6.74512 3.87454 6.53556 4.0619C 5.11353 4.80347 3.26275 3.80142 0.785827 4.84751C 0.332352 5.05274 0.0888508 5.21227 0 5.27666C 0.0846597 5.20438 0.307625 4.99208 0.607287 4.57581Z"/>
<path id="path29_fill" fill-rule="evenodd" d="M 0 9.11424C 0.0668779 9.01588 0.238019 8.73325 0.426606 8.21614C 1.1066 6.50211 0.267096 4.19584 1.82066 2.41666C 4.00436 0.202114 5.07316 0.310849 6.74968 0C 4.91656 1.78832 2.4695 5.2861 2.74656 4.98687C 2.96257 4.93997 4.5801 2.73747 8.13418 0.235316C 7.2847 1.51773 6.63296 4.02403 6.47012 4.41165C 5.38346 6.50916 2.91853 6.70588 0.700764 8.45145C 0.283712 8.78969 0.0735241 9.02293 0 9.11424Z"/>
<path id="path30_fill" fill-rule="evenodd" d="M 3.3114 6.28592C 1.38291 4.08016 1.30797 3.20845 0.418029 1.56589C 3.14848 2.21258 6.61648 5.92655 6.27843 5.53583C 6.13446 5.49218 4.65515 2.377 0 0.00215669C 1.6839 -0.0393734 5.14222 0.528064 5.75053 0.912429C 8.93942 2.80374 8.51087 6.01131 9.23537 9.03496C 9.37597 9.6274 9.51195 9.95286 9.56962 10.0736C 9.50142 9.9554 9.29599 9.64816 8.86154 9.21591C 7.35192 7.69158 4.73471 7.90813 3.3114 6.28592Z"/>
<path id="path31_fill" fill-rule="evenodd" d="M 0.447508 4.20884C 1.14731 3.14793 1.10036 1.35732 2.6218 0.533276C 4.65889 -0.365979 5.29434 0.0790778 6.40617 0.377444C 4.72324 0.883171 2.30367 2.55992 2.56595 2.4498C 2.7153 2.47058 4.25819 1.37435 7.17722 0.947167C 6.26532 1.48281 5.17049 2.86286 4.99806 3.05069C 3.9008 4.0314 2.35953 3.52151 0.593216 4.41121C -0.282653 4.87871 -0.0632812 5.03953 0.447508 4.20884Z"/>
<path id="path32_fill" fill-rule="evenodd" d="M 2.63116 8.08426C 2.62291 8.13235 2.61838 8.16659 2.62786 8.17148C 2.62663 8.2473 2.62993 8.20776 2.63116 8.08426C 2.73098 7.54216 3.78814 4.3091 1.46305 0C 2.90339 0.875108 5.30851 3.64595 5.48835 4.42771C 6.60408 8.2795 3.79103 10.3374 1.81365 12.5853C 1.41314 13.0333 1.22959 13.3231 1.16813 13.4315C 1.22093 13.3162 1.35044 12.9827 1.4449 12.393C 1.76044 10.3036 -0.132802 8.55748 0.00743786 6.6377C 0.144791 3.96387 0.594796 3.28604 0.883525 1.49343C 2.57672 3.28074 2.64024 7.32654 2.63116 8.08426Z"/>
<path id="path33_fill" fill-rule="evenodd" d="M 0 5.49413C 1.47892 4.88048 3.18226 3.04278 3.40912 2.76584C 4.97347 1.49616 7.22088 2.33306 9.75074 0.668144C 10.2106 0.329026 10.4448 0.0924502 10.5266 0C 10.4501 0.0993133 10.2494 0.389583 10.007 0.932576C 9.17274 2.61121 9.24387 5.29227 6.84522 6.51027C 3.65152 7.76703 2.6901 7.02137 1.05953 6.43316C 3.72469 6.02299 7.39256 3.58941 6.97603 3.72425C 6.77123 3.69841 4.42491 5.37624 0 5.49413Z"/>
<path id="path34_fill" fill-rule="evenodd" d="M 1.44311 11.2469C 1.12385 11.6393 0.977642 11.8956 0.929573 11.9924C 0.970031 11.8905 1.07057 11.5958 1.13547 11.0774C 1.41907 9.24686 -0.20725 7.68866 0.0222773 5.86365C 0.265825 3.32528 0.778157 2.71004 1.31292 1.15945C 2.31155 3.20139 2.1393 7.0379 2.12288 7.34404L 2.12248 7.34489C 2.12047 7.38167 2.12128 7.37322 2.12288 7.34404C 2.13209 7.22649 3.07664 4.44161 2.10285 0C 2.95366 1.14803 4.5884 3.65299 4.66331 4.28092C 5.33306 7.4506 3.09066 9.24602 1.44311 11.2469Z"/>
<path id="path35_fill" fill-rule="evenodd" d="M 5.98478 9.59394C 4.74822 8.91484 2.41989 7.79423 2.01707 7.48475C 0.0809041 5.70439 0.694924 3.35931 0.226532 0.858223C 0.137537 0.369612 0.0417295 0.099236 0 0C 0.0498199 0.0971335 0.203112 0.356577 0.539077 0.732076C 1.70708 2.00406 3.87275 2.09951 4.92068 3.72303C 6.21131 5.98359 6.06441 6.76697 6.22025 8.32489C 4.53063 6.76361 2.18569 3.55484 2.38497 3.88198C 2.43862 4.03167 3.55467 6.29139 5.98478 9.59394Z"/>
<path id="path36_fill" fill-rule="evenodd" d="M 0.152912 6.23606C -0.177677 5.07721 0.0726837 2.36081 0.476648 1.8454C 2.22313 -0.809007 5.01379 -0.0273925 6.91508 0.694659C 7.94233 1.08243 7.86855 0.755437 6.89452 0.99288C 5.45001 1.39483 5.19037 3.17605 4.21513 3.81666C 2.81819 4.83247 2.2449 4.98645 1.20072 5.74659C 1.16121 3.92606 3.35318 2.08122 3.84382 1.73073C 3.89986 1.70764 3.93332 1.69427 3.92647 1.68981C 3.97162 1.64686 3.93212 1.66752 3.84382 1.73073C 3.38705 1.91793 1.05961 2.84582 0.152912 6.23606Z"/>
<path id="path37_fill" fill-rule="evenodd" d="M 11.0051 10.0101C 9.30097 10.9426 4.9395 11.3042 4.04579 10.8147C -0.564425 8.90312 -0.30652 4.27908 0.388032 1.1322C 0.546775 0.503153 0.575524 0.137487 0.578857 0C 0.58844 0.138729 0.640521 0.512678 0.863845 1.08954C 1.8263 3.24047 4.72117 3.06489 6.01487 4.40746C 8.03561 6.29997 8.42643 7.15181 9.91136 8.55402C 8.39518 8.76853 6.2961 8.08441 4.86742 7.16341C 3.41498 6.26353 2.61585 5.26344 2.78251 5.48706C 2.79168 5.40755 4.76076 9.58061 11.0051 10.0101Z"/>
<path id="path38_fill" fill-rule="evenodd" d="M 10.4175 7.19545C 8.99866 6.3277 6.37251 6.21318 5.96886 6.1235C 3.62632 5.43974 2.76165 2.82092 0.747888 0.674916C 0.358075 0.262725 0.0988774 0.0661022 0 0C 0.105388 0.0589446 0.409751 0.209674 0.958257 0.350299C 2.81292 0.874485 4.95893 -0.48924 7.07889 0.765859C 9.81979 2.61167 9.98744 3.87982 10.5266 5.67005C 8.39278 3.82003 4.24644 2.10432 4.63015 2.29042C 4.65172 2.57883 7.46993 3.62593 10.4175 7.19545Z"/>
<path id="path39_fill" fill-rule="evenodd" d="M 10.4179 7.19545C 8.99901 6.3277 6.37276 6.21318 5.96909 6.1235C 3.62646 5.43974 2.76176 2.82092 0.747917 0.674916C 0.358089 0.262725 0.0988813 0.0661022 0 0C 0.105392 0.0589446 0.409767 0.209674 0.958294 0.350299C 2.81303 0.874485 4.95912 -0.48924 7.07917 0.765859C 9.82017 2.61167 9.98782 3.87982 10.5266 5.67005C 8.39311 3.82003 4.2466 2.10432 4.63033 2.29084C 4.6519 2.57925 7.47022 3.62593 10.4179 7.19545Z"/>
<path id="path40_fill" fill-rule="evenodd" d="M 9.09114 2.05915C 8.07006 2.50573 6.31683 3.61616 5.9602 3.71727C 4.019 4.26668 2.7562 2.78839 0.748524 2.22048C -0.287326 1.94341 -0.216737 2.24587 0.766582 1.93954C 2.10367 1.55965 3.064 -0.0098488 4.68344 4.65838e-05C 6.82532 0.101152 7.28045 0.643246 8.37663 1.26364C 6.56923 1.62418 3.40915 1.82768 3.71284 1.84532C 3.84664 1.89006 5.83626 2.04022 9.09114 2.05915Z"/>
<path id="path41_fill" fill-rule="evenodd" d="M 6.69873 0.110938C 6.21546 1.12794 5.59484 3.12904 5.39264 3.44371C 4.29195 5.1546 2.46093 4.90404 0.631916 5.82993C -0.30181 6.31924 -0.0659762 6.49683 0.47456 5.60932C 1.23171 4.42992 0.987469 2.61991 2.19026 1.54048C 3.83429 0.178007 4.50015 0.275025 5.68733 0C 4.57102 1.48058 2.35923 3.75291 2.59426 3.56224C 2.71999 3.5053 4.28194 2.28119 6.69873 0.110938Z"/>
<path id="path42_fill" fill-rule="evenodd" d="M 0.275489 9.77444C -0.97518 5.29835 2.2903 2.54892 4.88766 0.721162C 5.41677 0.352156 5.67309 0.0947789 5.75746 0C 5.67831 0.104046 5.46538 0.420818 5.23277 1.02066C 4.45055 3.24397 6.39224 5.24864 6.20783 7.27481C 6.03347 10.2349 5.59033 11.1165 5.22553 13.1802C 3.41642 11.0398 3.36379 6.43907 3.40437 5.58901C 3.41803 5.53551 3.42727 5.49676 3.42406 5.49212C 3.41924 5.40872 3.4108 5.4521 3.40437 5.58901C 3.24648 6.1977 2.17339 9.87933 4.53853 14.8706C 3.05484 13.7674 0.483599 10.6873 0.275489 9.77444Z"/>
<path id="path43_fill" fill-rule="evenodd" d="M 1.20832 2.96556C 3.46439 0.309223 4.73729 0.359312 6.60428 0C 4.48028 1.96048 2.19737 6.0462 2.46528 5.68689C 2.72984 5.66164 4.16121 2.92044 8.13418 0.277349C 7.11368 1.65499 6.61266 4.361 6.47808 4.76792C 5.51712 7.04797 2.83508 7.47476 0.66244 9.71549C 0.259106 10.1522 0.0670825 10.4407 0 10.5533C 0.0591165 10.4337 0.201248 10.0976 0.326189 9.50272C 0.813795 7.53644 -0.3656 5.09742 1.20832 2.96556Z"/>
<path id="path44_fill" fill-rule="evenodd" d="M 6.49521 9.59394C 5.46983 8.52635 3.25079 7.29218 2.91466 7.04067C 1.19493 5.49632 1.72398 3.23354 0.503979 0.789818C 0.259214 0.331519 0.0747895 0.0878032 0 0C 0.0828633 0.08329 0.324229 0.300746 0.789539 0.584671C 2.30573 1.57594 4.72958 1.41224 6.01673 3.2877C 7.54099 5.83563 7.16704 6.7629 7.05316 8.377C 5.79236 6.28696 3.13478 3.14902 3.33493 3.48587C 3.3498 3.68281 4.95098 5.74578 6.49521 9.59394Z"/>
<path id="path45_fill" fill-rule="evenodd" d="M 2.5628 5.21494C 2.48687 5.41632 2.71762 8.28163 2.79737 12.9518C 2.15812 11.4713 0.471558 9.11961 0.283644 8.64437C -0.686894 6.02005 1.10317 3.96702 1.61686 1.0242C 1.70976 0.460488 1.70976 0.125549 1.70297 0C 1.72121 0.127656 1.78696 0.471864 2.00499 1.01409C 2.70829 2.87163 5.02689 4.00494 5.2428 6.37058C 5.39593 9.51648 4.66633 10.2626 3.86632 11.8889C 3.32718 9.26496 2.53565 4.78183 2.5628 5.21494Z"/>
<path id="path46_fill" fill-rule="evenodd" d="M 6.04162 6.88317C 4.50927 9.35336 3.68876 9.7435 2.35985 11.1148C 2.10839 8.23618 4.68239 3.7787 4.42419 4.22998C 4.40481 4.35642 1.80639 6.74633 0.959764 11.9924C 0.415565 10.3732 -0.157698 6.86737 0.0398483 6.13825C 0.921013 2.39158 4.32099 1.76811 7.16582 0.512838C 7.73277 0.267441 8.02972 0.0761146 8.13418 0C 8.03393 0.0856809 7.76857 0.340644 7.42402 0.848075C 6.21558 2.64405 7.16456 5.10592 6.04162 6.88317Z"/>
<path id="path47_fill" fill-rule="evenodd" d="M 3.73831 10.0736C 3.36203 8.65737 1.92315 6.93519 1.68592 6.72682C 0.742755 5.24747 1.57426 3.24677 0.465858 0.7816C 0.240496 0.329575 0.069122 0.0875824 0 0C 0.0777111 0.0838466 0.301437 0.30135 0.735393 0.590247C 2.09779 1.57773 4.49007 1.70723 5.37843 3.99683C 6.22139 7.03357 5.42915 7.84962 4.70643 9.23475C 4.68026 6.76709 2.80169 3.22519 2.88267 3.61993C 2.83482 3.79676 4.17963 6.07847 3.73831 10.0736Z"/>
<path id="path48_fill" fill-rule="evenodd" d="M 3.43711 9.59394C 2.76255 8.48165 1.06039 6.9847 0.82173 6.6883C -0.36857 4.97189 0.63054 3.12955 0.224854 0.784715C 0.135948 0.342149 0.0418633 0.0935342 0 0C 0.050495 0.0915096 0.201548 0.332026 0.527392 0.680654C 1.58304 1.88445 3.72325 2.27357 4.40385 4.11145C 5.15351 6.57169 4.64122 7.29202 4.19195 8.65697C 3.50271 6.62757 1.90068 3.39598 2.00728 3.72031C 1.96671 3.89199 2.88253 5.99429 3.43711 9.59394Z"/>
<path id="path49_fill" fill-rule="evenodd" d="M 0 0.181251C 1.16916 -0.229101 4.01555 0.114846 4.54395 0.639704C 7.26402 2.85961 6.07214 5.87893 5.13849 7.84427C 4.63361 8.92805 4.97471 8.8859 4.83922 7.78681C 4.59017 6.15391 2.8173 5.64225 2.28811 4.59509C 1.41941 3.08266 1.28153 2.45777 0.513251 1.32547C 2.3953 1.22756 4.10043 3.75225 4.42998 4.35288C 4.45309 4.43588 4.46265 4.47675 4.46584 4.4627C 4.51087 4.51932 4.49214 4.46696 4.42998 4.35288C 4.27019 3.77268 3.4772 1.10923 0 0.181251Z"/>
<path id="path50_fill" fill-rule="evenodd" d="M 6.66307 8.63454C 5.70624 7.62086 3.61343 6.61408 3.31336 6.40891C 1.66883 5.13735 1.93476 2.93565 0.571813 0.735965C -0.142395 -0.3657 -0.317935 -0.0494328 0.81082 0.513361C 2.28061 1.30281 4.48831 0.894504 5.85005 2.60681C 7.47489 4.95814 7.16398 5.9041 7.13466 7.45178C 5.91472 5.46376 3.2025 2.71507 3.4182 3.01552C 3.41861 3.22069 5.15954 4.99503 6.66307 8.63454Z"/>
<path id="path51_fill" fill-rule="evenodd" d="M 0.391025 8.86344C -0.872845 5.67243 1.19395 3.19167 2.79861 0.884064C 3.65137 -0.302564 3.22217 -0.332517 3.15707 1.0248C 3.09719 3.00046 5.11175 4.31388 5.22307 6.28626C 5.39748 9.04931 4.9723 9.84656 4.57084 11.6043C 3.2499 9.53472 2.67443 5.50789 2.63143 5.13328C 2.63183 5.13205 2.63223 5.12548 2.63223 5.12384C 2.62661 5.08281 2.62661 5.09635 2.63143 5.13328C 2.60611 5.32777 2.24966 8.40266 3.8531 12.9518C 2.7548 11.8099 0.628929 9.48958 0.391025 8.86344Z"/>
<path id="path52_fill" fill-rule="evenodd" d="M 0.131245 6.71575C -0.197654 5.44295 0.145656 2.56778 0.56568 2.04811C 2.29537 -0.641808 5.84714 -0.332118 7.6599 0.982442C 7.91209 1.27065 8.0723 1.39914 8.13418 1.44211C 8.07314 1.40685 7.89386 1.32253 7.57089 1.28119C 6.12052 1.37199 5.9175 3.39997 4.81594 4.11339C 3.19857 5.28932 2.53569 5.44862 1.31757 6.22325C 1.41336 4.33674 3.75549 2.27836 4.32132 1.87827C 4.3921 1.8503 4.43364 1.8349 4.43152 1.83328C 4.47729 1.77937 4.42686 1.80288 4.32132 1.87827C 3.77711 2.09392 1.29935 3.18797 0.131245 6.71575Z"/>
<path id="path53_fill" fill-rule="evenodd" d="M 0 5.75636C 0.152894 4.59787 0.659593 2.17648 1.02266 1.77863C 2.5912 -0.432347 5.13185 0.00783226 7.33091 0.0908697C 8.4732 0.119489 8.30809 -0.167514 7.39493 0.380695C 6.04332 1.11755 6.037 2.98146 4.80121 3.78805C 3.13159 5.00137 2.44588 5.03361 1.18904 5.58142C 1.75849 3.83078 4.17953 1.88746 4.44909 1.68672C 4.45162 1.6847 4.46004 1.68148 4.46131 1.68067C 4.48953 1.6577 4.47858 1.66415 4.44909 1.68672C 4.29241 1.76774 2.00616 2.69607 0 5.75636Z"/>
<path id="path54_fill" fill-rule="evenodd" d="M 8.61266 0.119812C 7.91053 1.47931 7.1941 4.10905 6.97337 4.52594C 5.68473 6.77465 3.10955 6.69967 0.744594 8.4406C 0.301033 8.78252 0.0790422 9.01969 0 9.11424C 0.0718948 9.01154 0.255626 8.72302 0.464163 8.19568C 1.21296 6.45516 0.535217 4.07237 2.17871 2.39542C 4.44402 0.310532 5.45265 0.414043 7.15837 0C 5.51698 1.94959 2.71855 5.2929 3.03514 5.0166C 3.22349 4.9298 5.16759 2.99121 8.61266 0.119812Z"/>
<path id="path55_fill" fill-rule="evenodd" d="M 0.0364402 4.57838C 0.841675 1.20193 4.15341 0.636078 6.75284 0.209049C 7.27333 0.129895 7.55637 0.0393743 7.6557 0C 7.55851 0.0470868 7.28953 0.196466 6.91184 0.530944C 5.56908 1.79133 6.26561 3.87695 5.3261 5.20918C 4.03661 7.15273 3.36225 7.53511 2.28803 8.75003C 1.83618 6.63356 3.58945 3.5311 3.92067 3.00665C 3.94752 2.97986 3.96415 2.96119 3.96372 2.95591C 3.99228 2.90233 3.97267 2.92628 3.92067 3.00665C 3.60352 3.33789 1.40052 5.36302 1.12685 9.59394C 0.483604 8.28444 -0.161778 5.24571 0.0364402 4.57838Z"/>
<path id="path56_fill" fill-rule="evenodd" d="M 0.0265804 3.68513C 0.620159 1.04147 3.07915 0.538662 5.03487 0.180906C 6.0631 0.0139802 5.84959 -0.219392 5.15768 0.435752C 4.16397 1.44419 4.71741 3.10576 4.00022 4.18996C 3.02096 5.76441 2.50604 6.06504 1.67889 7.02122C 1.39033 5.32968 2.69588 2.84807 2.93989 2.43319C 2.95755 2.41172 2.96919 2.39835 2.96838 2.39348C 2.99086 2.35175 2.97721 2.36917 2.93989 2.43319C 2.70832 2.69614 1.07407 4.30989 0.792734 7.67515C 0.336814 6.61647 -0.115493 4.20779 0.0265804 3.68513Z"/>
<path id="path57_fill" fill-rule="evenodd" d="M 1.10134 0.916078C 0.536775 0.363634 0.158177 0.0941993 0.0108982 0C 0.168162 0.0843269 0.613327 0.291648 1.41046 0.4965C 3.99866 1.25092 7.46221 0.155079 10.0088 2.4681C 13.1058 5.65772 12.8733 7.07482 13.3975 9.43022C 10.7464 7.00119 5.8617 3.24844 6.25319 3.69722C 6.39298 3.95061 9.27491 6.50469 13.1449 11.417C 11.2336 10.3599 7.53668 9.3027 6.96712 9.0382C 6.00315 8.51537 5.35288 7.81484 4.82076 7.00777C 4.74795 7.13406 4.6144 7.4002 4.47877 7.85351C 3.94957 9.72351 5.56964 11.4405 5.33208 13.1488C 5.06248 15.5635 4.62148 16.1961 4.26451 17.8374C 2.77051 16.0933 2.93443 12.3537 2.99642 11.6725C 3.00973 11.6281 3.0168 11.5972 3.01015 11.5931C 3.01264 11.5244 3.00557 11.5631 2.99642 11.6725C 2.85371 12.1616 1.72749 15.0949 3.65043 19.1879C 2.38275 18.2985 0.275917 15.649 0.158177 14.9041C -0.696789 11.2476 2.09652 9.41829 4.16217 7.63632C 4.53078 7.32492 4.7259 7.10938 4.81702 6.9979C 3.66333 5.2402 3.08046 2.97612 1.10134 0.916078Z"/>
<path id="path58_fill" fill-rule="evenodd" d="M 0.807891 2.82468C 2.6956 0.46948 3.73588 0.474409 5.33032 0C 3.7363 1.88326 1.74733 5.47111 2.00068 5.16633C 2.1826 5.08131 3.52034 2.82715 6.69873 0.0788628C 6.016 1.38996 5.63955 3.82813 5.53451 4.21793C 4.71229 6.30327 2.37461 6.675 0.559585 8.76897C -0.326079 9.85867 0.0570927 9.93548 0.251199 8.59728C 0.571769 6.84504 -0.513463 4.71986 0.807891 2.82468Z"/>
<path id="path59_fill" fill-rule="evenodd" d="M 0 1.95145C 1.05846 1.04003 3.90016 -0.0966302 4.60279 0.00654966C 8.08597 0.309798 8.97821 3.51257 9.3677 5.88738C 9.44526 6.36805 9.5335 6.626 9.56962 6.71575C 9.52571 6.62809 9.38329 6.38315 9.06276 6.04047C 7.8348 4.82245 5.92925 5.62985 4.67708 4.96673C 2.80313 4.07125 2.33649 3.54696 1.02029 2.81967C 2.88111 1.91328 5.95962 3.11243 6.56621 3.39848C 6.613 3.43539 6.64419 3.45762 6.64747 3.45217C 6.71191 3.47314 6.67169 3.44839 6.56621 3.39848C 6.14431 3.07091 3.949 1.24345 0 1.95145Z"/>
<path id="path60_fill" fill-rule="evenodd" d="M 14.8329 5.85474C 12.9194 5.77839 9.72741 6.67838 9.1671 6.71464C 6.05384 6.7799 4.52387 3.96261 1.19116 2.58276C 0.544718 2.33793 0.149716 2.25816 0 2.23641C 0.153407 2.2458 0.577943 2.24921 1.27648 2.11613C 3.60835 1.75869 5.73226 -0.55827 8.57521 0.125472C 12.2508 1.23533 12.7791 2.46162 14.1951 4.14133C 11.0867 3.36333 5.78517 2.62968 6.27493 2.77257C 6.46156 2.97134 9.81929 3.5911 14.8329 5.85474Z"/>
<path id="path61_fill" fill-rule="evenodd" d="M 6.27828 6.67728C 6.16507 6.4965 3.72912 5.04113 0 2.34601C 1.5429 2.72166 4.35405 2.73825 4.84328 2.85435C 7.47255 3.61064 8.1081 6.23031 10.1533 8.35863C 10.3667 8.57424 10.5383 8.72641 10.6707 8.83504C 11.2139 7.47629 11.303 5.89114 12.1417 4.92504C 13.7582 2.92608 14.4616 2.62962 15.577 1.15517C 16.3866 3.60815 13.9654 7.08736 13.423 7.7458C 13.3764 7.78187 13.3409 7.80924 13.3323 7.82168C 13.2845 7.90004 13.3286 7.86024 13.423 7.7458C 13.6519 7.56833 14.2961 7.08114 15.0546 6.07192C 15.9281 4.89021 17.0602 2.7594 16.7512 0C 17.8592 1.40105 18.4674 5.49267 18.0501 6.32609C 16.533 10.63 12.7683 10.3974 9.76217 10.8158C 9.15359 10.8891 8.81395 10.9882 8.68807 11.033C 8.8115 10.9766 9.13806 10.8033 9.60727 10.409C 10.0961 9.99022 10.41 9.46488 10.6438 8.89848C 10.4774 8.83339 10.2502 8.75461 9.93955 8.6779C 8.05864 8.15961 5.84259 9.35749 3.83334 8.15712C 1.23759 6.45297 1.04468 5.43006 0.220298 3.82584C 2.60801 4.96443 6.63999 6.9016 6.27828 6.67728Z"/>
<path id="path62_fill" fill-rule="evenodd" d="M 0 3.58815C 0.771058 2.14698 3.92361 0.00569591 4.85046 0.0308302C 9.28811 -0.370508 10.7511 3.23303 11.5979 5.80281C 11.7596 6.32982 11.9012 6.61076 11.962 6.71575C 11.8912 6.61522 11.6842 6.36063 11.2605 6.0274C 9.61553 4.82541 7.45231 6.02213 5.98684 5.54093C 3.78947 4.94419 3.16338 4.50272 1.45672 4.13867C 3.1992 2.49764 6.96202 3.14749 7.84763 3.40451C 7.95386 3.46653 8.00884 3.50302 8.00009 3.49126C 8.0984 3.49369 8.02717 3.4568 7.84763 3.40451C 7.15947 3.00074 4.14855 1.4193 0 3.58815Z"/>
<path id="path63_fill" fill-rule="evenodd" d="M 0 3.58815C 0.771058 2.14657 3.92361 0.00569591 4.85046 0.0308302C 9.28811 -0.370508 10.7507 3.23303 11.5975 5.80281C 11.7592 6.32942 11.9012 6.61076 11.962 6.71575C 11.8908 6.61522 11.6838 6.36063 11.2601 6.02699C 9.61553 4.82541 7.4519 6.02172 5.98643 5.54093C 3.78906 4.94378 3.16338 4.50272 1.45672 4.13827C 3.19879 2.49764 6.9616 3.14749 7.84722 3.40451C 7.95344 3.46653 8.00842 3.50261 7.99968 3.49086C 8.09799 3.49369 8.02675 3.4564 7.84722 3.40451C 7.15905 3.00074 4.14814 1.41889 0 3.58815Z"/>
<path id="path64_fill" fill-rule="evenodd" d="M 9.37457 6.10089C 7.92859 5.04167 5.8944 5.76402 4.53622 4.9626C 2.60838 3.89514 2.24193 3.32393 0.960004 2.48298C 2.92783 1.76928 6.02095 3.23662 6.59472 3.53438C 6.63182 3.5632 6.65861 3.58132 6.66438 3.57473C 6.72292 3.60439 6.68912 3.58338 6.59472 3.53438C 6.21014 3.23621 4.12526 1.21125 0 1.52547C 1.15703 0.719524 4.16071 -0.145317 4.84825 0.0206496C 8.28432 0.620273 8.7571 3.56815 9.66393 5.9028C 9.84489 6.38011 9.99122 6.62927 10.0481 6.71575C 9.98339 6.63298 9.78347 6.40441 9.37457 6.10089Z"/>
<path id="path65_fill" fill-rule="evenodd" d="M 4.80404 0.00627451C 8.98659 -0.163617 9.82113 3.15356 11.6975 5.4591C 12.0821 5.92888 12.342 6.15798 12.4405 6.23606C 12.3342 6.16484 12.023 5.9795 11.452 5.78344C 9.50464 5.07942 7.35445 6.34674 5.70056 5.76371C 3.45269 5.04553 3.04917 4.5277 1.40964 4.15274C 3.09679 2.40535 6.97023 3.39252 7.65289 3.61518C 7.68573 3.63363 7.70994 3.64693 7.72021 3.65036C 7.7982 3.66838 7.7629 3.65122 7.65289 3.61518C 7.44641 3.49549 6.79454 3.09435 5.64351 2.76058C 4.36276 2.40535 2.11857 2.15995 0 3.62119C 0.639553 2.04025 3.93995 -0.095832 4.80404 0.00627451Z"/>
<path id="path66_fill" fill-rule="evenodd" d="M 3.86089 5.08648C 5.7348 2.90819 6.63037 2.4635 8.09541 1.02201C 8.49035 3.7939 5.83681 7.45477 5.21941 8.15618C 5.14812 8.20623 5.10101 8.23715 5.10306 8.24C 5.05676 8.3234 5.10961 8.28068 5.21941 8.15618C 5.84009 7.7237 8.95452 5.44247 9.60593 0C 10.4019 1.7633 10.7641 5.93761 10.3602 6.79607C 8.88611 11.1555 3.70275 11.8215 0.862391 10.2795C 0.394119 9.94145 0.111435 9.80312 0 9.75796C 0.115941 9.79092 0.421977 9.85398 0.912782 9.81655C 2.95917 9.29334 2.57283 6.46205 3.86089 5.08648Z"/>
<path id="path67_fill" fill-rule="evenodd" d="M 14.3544 4.46361C 12.6717 5.03632 9.44036 6.2062 8.79187 6.2315C 5.33927 6.3642 3.91152 3.57033 1.04696 1.82235C 0.48565 1.491 0.133646 1.35208 0 1.30812C 0.138581 1.34171 0.530062 1.41511 1.19665 1.40806C 3.44848 1.43751 5.54982 -0.486726 7.99287 0.1175C 11.2164 1.00995 11.7502 1.89741 13.3474 3.10089C 10.4236 3.37998 5.34092 2.3963 5.82492 2.54643C 6.02066 2.59536 9.06409 3.86602 14.3544 4.46361Z"/>
<path id="path68_fill" fill-rule="evenodd" d="M 7.54428 8.19482C 7.40542 7.92374 4.46353 5.09928 0.196951 0C 2.23114 1.05392 6.16274 2.1095 6.78655 2.42097C 10.1372 4.28854 9.99174 8.04575 12.7935 11.424C 13.349 12.0507 13.7276 12.3622 13.8759 12.4721C 13.7161 12.3722 13.2641 12.1228 12.4429 11.8542C 9.76636 10.8719 6.17304 11.9008 3.61145 9.47859C 0.446229 6.13987 0.613513 4.65081 0 2.1374C 2.90152 4.59002 7.95754 8.66369 7.54428 8.19482Z"/>
<path id="path69_fill" fill-rule="evenodd" d="M 5.57318 2.1857C 5.787 2.22003 8.39646 3.56426 12.919 5.23896C 11.2893 5.3647 8.24301 5.78575 7.71852 5.75473C 4.83739 5.46521 4.13639 2.89545 1.09426 1.72039C 0.480049 1.53633 0.119069 1.4896 0 1.47967C 0.124939 1.48298 0.515267 1.47471 1.17434 1.3378C 3.25427 0.999469 5.47634 -0.621052 7.85268 0.258281C 10.8533 1.5475 11.1015 2.49094 12.306 3.84841C 9.67519 3.39013 5.1795 1.92223 5.57318 2.1857Z"/>
<path id="path70_fill" fill-rule="evenodd" d="M 11.0051 4.89913C 9.51159 4.80173 6.91017 5.31085 6.42174 5.27484C 3.77417 5.01127 2.61272 2.63101 0.735779 0.714434C -0.223929 -0.274342 -0.330518 0.109546 0.930171 0.414445C 2.6895 0.856448 4.53663 -0.528903 6.49117 0.233961C 9.1077 1.34592 9.51731 2.23689 10.5542 3.57558C 8.11491 2.97642 4.08169 1.84727 4.45781 1.96882C 4.56767 2.14767 7.08333 3.08529 11.0051 4.89913Z"/>
<path id="path71_fill" fill-rule="evenodd" d="M 5.73991 3.32212C 8.67037 1.32624 9.75412 1.30626 11.8831 0.374381C 10.8789 3.70956 5.71018 7.40443 6.24158 7.03046C 6.2956 6.87875 10.5029 5.54761 13.8759 0C 13.7976 2.05869 12.7068 6.28373 12.1113 6.99579C 9.24533 10.758 5.18464 9.75268 1.34966 9.91947C 0.58291 9.94761 0.153265 10.0341 0 10.0736C 0.152847 10.0218 0.577467 9.85015 1.21188 9.42642C 3.42795 7.9501 3.5942 4.7597 5.73991 3.32212Z"/>
<path id="path72_fill" fill-rule="evenodd" d="M 6.09762 0.0540457C 8.53267 -0.115231 9.23048 0.169888 10.9394 0.14052C 9.60504 2.0046 5.85445 2.52794 5.06655 2.60013C 4.99439 2.59279 4.94809 2.59075 4.94892 2.60258C 4.86884 2.61319 4.92682 2.61278 5.06655 2.60013C 5.69345 2.66744 8.89847 3.25725 12.4405 0.390968C 11.9262 1.8753 9.62047 4.51765 8.86802 4.78931C 5.24173 6.33524 2.81169 3.86951 0.769555 2.04335C 0.35996 1.66646 0.0963507 1.49596 0 1.44171C 0.102607 1.49025 0.407926 1.61302 0.952663 1.70399C 2.91722 1.98625 4.38208 0.116862 6.09762 0.0540457Z"/>
<path id="path73_fill" fill-rule="evenodd" d="M 0.596691 11.5127C 0.512731 9.95764 -0.0534913 7.12454 0.00410436 6.56751C 0.348056 3.61638 2.93459 2.5056 5.05509 0.682041C 5.47042 0.330364 5.67282 0.0909935 5.74177 0C 5.6785 0.0979614 5.51828 0.384468 5.3532 0.909525C 4.76913 2.73308 6.09181 4.74314 5.26722 6.70114C 4.09462 9.33872 3.24325 9.75925 1.93072 10.9241C 2.27386 8.33533 3.66711 4.12176 3.52028 4.51852C 3.37913 4.64436 2.10513 7.17906 0.596691 11.5127Z"/>
<path id="path74_fill" fill-rule="evenodd" d="M 7.6557 11.5127C 5.95616 11.3912 2.49702 10.2982 1.92113 9.75095C -1.07722 7.1276 0.126237 3.77157 0.94156 0.99575C 1.11084 0.444814 1.15159 0.119539 1.15915 0C 1.16125 0.121165 1.18897 0.461078 1.36035 1.00307C 2.02488 2.95635 4.5599 3.43328 5.44453 5.08934C 6.75972 7.40937 6.77106 8.25062 7.42887 9.94571C 5.0291 9.18131 2.78392 5.81633 2.41469 5.21091C 2.40041 5.17147 2.38864 5.14423 2.38108 5.14261C 2.34286 5.08487 2.35798 5.11699 2.41469 5.21091C 2.59783 5.69517 3.47616 8.89466 7.6557 11.5127Z"/>
<path id="path75_fill" fill-rule="evenodd" d="M 9.54804 0C 9.68011 1.50622 9.17967 4.69615 8.76404 5.28102C 6.80532 8.29179 3.57946 7.72999 0.937166 7.42329C 0.41183 7.35574 0.110131 7.36833 0 7.3784C 0.110131 7.3591 0.415205 7.28442 0.883999 7.05534C 2.56634 6.18727 2.6385 3.89688 4.01872 2.87903C 5.94242 1.38707 6.70616 1.25365 8.15431 0.428791C 7.80156 2.6424 5.06053 5.10228 4.56262 5.51429C 4.52844 5.53317 4.50565 5.54702 4.50523 5.55373C 4.45797 5.59611 4.48498 5.57806 4.56262 5.51429C 4.97698 5.28311 7.76316 4.04457 9.54804 0Z"/>
<path id="path76_fill" fill-rule="evenodd" d="M 4.89819 9.84055C 3.78094 7.6705 1.94264 3.96487 2.07756 4.33442C 2.05759 4.5314 3.00853 6.96925 4.23134 11.033C 3.30975 9.89061 1.25624 8.26673 0.969692 7.90248C -0.531924 5.85777 0.492794 3.61486 0.187498 0.916129C 0.123097 0.399662 0.0383148 0.108666 0 0C 0.0476898 0.107038 0.193612 0.391115 0.523364 0.808684C 1.608 2.25227 3.90689 2.65559 4.69927 4.66855C 5.6331 7.37746 5.19166 8.2183 4.89819 9.84055Z"/>
<path id="path77_fill" fill-rule="evenodd" d="M 5.45176 0.0298429C 9.07531 0.798919 9.83426 4.12831 10.2959 6.7652C 10.3841 7.29143 10.4848 7.57563 10.5266 7.67515C 10.476 7.57809 10.3124 7.30822 9.94472 6.92982C 8.55754 5.57964 6.30178 6.33971 4.80413 5.39536C 2.61373 4.08899 2.16426 3.38462 0.857609 2.22937C 3.2213 1.92141 6.66692 3.63729 7.2142 3.94484C 7.23697 3.96573 7.25257 3.97801 7.25721 3.98006C 7.31287 4.00545 7.29305 3.9903 7.2142 3.94484C 6.87563 3.64876 4.61524 1.53032 0 1.00163C 1.49091 0.471304 4.73582 -0.143383 5.45176 0.0298429Z"/>
<path id="path78_fill" fill-rule="evenodd" d="M 8.35679 0.147769C 12.0424 1.41835 12.3538 2.72221 13.5028 4.41215C 10.6858 3.16737 5.61842 2.29577 6.07145 2.55662C 6.26255 2.66895 9.50337 3.24849 13.8759 6.07339C 12.0791 5.70353 9.0351 6.16908 8.57136 6.23606C 5.96519 6.17864 4.6724 3.60421 1.196 2.87989C 0.518515 2.7842 0.129732 2.79335 0 2.80333C 0.134262 2.78503 0.542814 2.70848 1.20959 2.44596C 3.32278 1.7104 5.41043 -0.602346 8.35679 0.147769Z"/>
<path id="path79_fill" fill-rule="evenodd" d="M 8.35679 0.147769C 12.0428 1.41835 12.3542 2.72221 13.5032 4.41215C 10.6862 3.16695 5.61842 2.29577 6.07145 2.55662C 6.26255 2.66895 9.50337 3.24849 13.8759 6.07339C 12.0795 5.70353 9.0351 6.16908 8.57136 6.23606C 5.9656 6.17864 4.6724 3.60421 1.196 2.87989C 0.518515 2.7842 0.130144 2.79335 0 2.80333C 0.134262 2.78503 0.543226 2.70848 1.21001 2.44596C 3.32278 1.7104 5.41043 -0.602346 8.35679 0.147769Z"/>
<path id="path80_fill" fill-rule="evenodd" d="M 11.962 5.1386C 10.4541 5.39069 7.49732 5.82567 6.96437 5.74698C 4.08175 5.31285 3.478 2.72497 0.933499 1.0983C 0.433231 0.801244 0.118573 0.677146 0 0.636934C 0.123182 0.668066 0.473034 0.73552 1.07134 0.734655C 3.03261 0.79519 5.16441 -0.614418 7.24425 0.32215C 9.90481 1.64441 10.1495 2.5105 11.3143 3.80077C 8.8255 3.55301 4.64948 1.86061 5.0295 2.10405C 5.21636 2.13951 7.57022 3.75839 11.962 5.1386Z"/>
<path id="path81_fill" fill-rule="evenodd" d="M 10.5266 0.765717C 9.97582 2.05651 7.84425 4.31712 7.15962 4.49896C 3.88604 5.67707 1.85777 3.11468 0.543464 1.13324C -0.144058 0.0699489 -0.287842 0.429785 0.754183 0.863892C 2.34325 1.45124 3.75672 -0.0858518 5.14871 0.00378702C 7.18318 0.0477527 7.79302 0.341853 9.2569 0.430638C 7.98184 2.06548 4.72231 2.23067 4.05751 2.21701C 4.00008 2.2025 3.96248 2.19353 3.96248 2.20079C 3.89513 2.20719 3.94141 2.21488 4.05751 2.21701C 4.57191 2.34763 7.2844 3.12791 10.5266 0.765717Z"/>
<path id="path82_fill" fill-rule="evenodd" d="M 0.0332321 0C -0.00776786 0.056 -0.0142679 0.055 0.0332321 0L 0.0332321 0Z"/>
<path id="path83_fill" fill-rule="evenodd" d="M 0 0L 171.88 0L 171.88 220.686L 0 220.686L 0 0Z"/>
<path id="path84_fill" fill-rule="evenodd" d="M 44.9254 133.379C 46.6607 133.362 48.4073 133.387 50.1654 133.442C 50.8391 133.481 51.0544 132.585 50.4499 132.338C 44.8798 130.056 38.3657 127.431 33.7823 124.83C 27.1506 121.087 20.8633 116.344 16.222 110.166C 11.5066 104.048 8.74847 96.6354 7.5456 89.1913C 9.46896 99.4397 14.8461 109.156 22.9888 115.723C 28.8035 120.558 42.2902 126.961 42.2923 126.961C 45.2906 128.252 47.922 129.31 50.5505 130.354C 57.9077 133.357 65.6599 136.013 72.8453 139.79C 72.5414 139.225 72.2445 138.671 71.9687 138.169C 70.1592 134.865 68.406 131.614 66.1208 128.833C 59.2816 119.539 44.221 119.456 37.5843 108.507C 42.4078 115.765 51.2234 117.444 58.612 121.077C 64.0144 123.411 68.5783 127.697 71.7194 132.626C 73.9591 135.967 74.8585 139.959 77.9276 142.728C 81.5341 145.981 85.6359 148.238 88.7911 152.098C 89.336 152.779 89.8226 152.575 89.7766 152.191C 89.5273 150.171 89.647 147.326 89.4748 146.168C 88.3663 138.635 86.0173 131.181 82.267 124.541C 78.1963 117.164 72.0755 111.051 64.6819 106.583C 57.3595 102.001 49.1224 98.8874 41.0236 95.2562C 33.0271 91.6952 24.6368 86.9176 20.0903 78.8135C 15.514 70.8254 14.8887 61.4927 15.3243 52.7828C 15.208 58.8399 15.6419 65.0273 17.4622 70.8906C 19.2261 76.7626 22.7358 82.0961 27.5249 85.8617C 37.2274 93.4025 49.5824 96.0234 60.6517 101.632C 63.2463 102.895 66.3117 104.763 68.777 106.321C 60.5217 101.098 54.8651 86.8998 52.4863 78.0281C 51.9016 75.8436 51.4093 73.6413 50.9828 71.427C 50.9613 71.3142 50.8615 70.7823 50.8404 70.6711C 49.2346 62.0549 48.606 53.2541 47.6466 44.5554C 49.8636 58.1794 50.5033 72.3776 56.3338 85.1112C 62.1378 97.7917 72.6784 106.829 81.3093 117.412C 84.5469 121.383 87.1295 125.587 89.1654 130.641C 89.2085 128.832 89.2743 127.827 89.37 126.506C 88.4421 119.704 87.3398 112.937 86.0015 106.256C 84.6595 99.555 83.0815 92.8436 81.2091 86.2443C 79.0799 78.8744 76.5939 71.5582 73.2544 64.7036C 69.8818 58.096 65.674 50.8996 58.6911 48.4459C 63.561 49.7889 67.3241 53.9528 70.3153 58.2055C 73.3285 62.557 75.7264 67.3619 77.8522 72.278C 82.0505 82.1513 85.1477 92.5374 87.7038 103.018C 88.763 107.421 89.5588 112.424 90.8168 116.591C 89.7576 113.084 92.4031 105.456 92.8933 102.647C 93.7277 97.8697 94.3446 93.0548 94.8784 88.2337C 96.1363 76.8887 93.348 65.8176 86.9452 56.3986C 82.3598 49.5723 76.6994 43.241 71.7791 36.2894C 66.8495 29.4282 62.6281 21.5319 62.0078 12.9734C 63.3888 24.8673 71.3149 34.3908 78.8009 43.268C 84.0728 49.5557 89.5961 55.602 93.6875 62.9142C 94.5343 64.4402 95.2895 65.8633 95.9533 67.7013C 95.9044 65.404 95.7744 62.43 95.5442 59.7913C 94.6693 49.9109 92.4209 40.099 88.2586 31.1111C 84.1357 22.1124 78.1454 14.0351 70.9952 7.29555C 81.137 16.264 89.1427 28.0458 93.3658 41.369C 96.9897 52.5148 98.2025 64.3642 98.0551 76.149C 98.1305 77.3451 98.0916 78.2903 97.9942 79.04C 97.9504 80.383 97.8945 81.6771 97.8245 82.972C 97.2974 92.7627 96.092 102.4 94.6887 111.953C 93.7082 117.479 93.1571 122.932 93.03 128.402C 93.1513 129.15 93.2618 129.78 93.3712 130.41C 94.1405 127.03 95.0713 123.693 96.1872 120.417C 98.9135 112.417 103.082 104.457 105.879 96.2823C 109.089 86.9056 109.37 77.6887 108.732 67.8805C 108.121 58.2238 106.71 48.3874 106.452 38.4228C 106.136 28.4844 107.25 18.3347 110.807 9.10036C 106.26 22.0646 106.842 36.2081 108.535 49.8026C 109.64 59.3523 111.278 68.6937 111.576 78.3504C 111.673 80.8307 111.627 83.3288 111.518 85.8385C 111.434 87.1483 111.346 88.3383 111.218 89.5265C 116.597 81.0771 121.108 72.1809 124.653 62.8851C 132.538 42.9676 134.66 20.9876 131.545 0C 133.968 14.4007 134.282 29.4419 131.496 44.17C 130.725 48.3384 129.711 52.4625 128.507 56.5339C 125.328 67.1553 121.059 77.0058 116.119 86.4264C 111.279 95.8052 105.474 104.404 101.995 114.006C 99.8253 119.993 97.6945 126.045 96.4788 132.311C 95.8477 135.559 95.4266 138.872 95.4879 142.188C 95.5049 143.141 95.9305 144.416 96.2452 145.654C 96.3872 146.21 97.1715 146.237 97.3466 145.69C 99.4423 139.147 102.155 133.223 106.169 127.453C 109.791 122.246 114.687 117.44 118.653 112.265C 122.979 106.624 126.111 100.192 129.054 93.746C 133.052 85.3124 135.164 75.9461 137.915 66.7225C 140.645 57.5583 144.222 48.2098 150.813 41.1213C 141.998 51.3166 139.463 64.9741 136.196 77.8048C 134.04 86.8986 130.902 95.6911 126.721 103.996C 125.683 106.156 124.529 108.262 123.376 110.385C 123.23 110.632 123.09 110.875 122.951 111.114C 124.155 110.167 125.363 109.231 126.568 108.296C 133.955 102.675 141.534 97.3245 148.654 91.4238C 155.715 85.5219 162.522 79.0582 167.038 71.1125C 171.669 63.2478 172.83 53.6085 170.074 44.9359C 172.049 50.8394 172.523 57.3525 170.901 63.5307C 169.333 69.7235 165.937 75.3881 161.879 80.4013C 153.643 90.4526 143.113 98.3559 132.98 106.367C 125.906 111.954 118.874 117.541 113.066 124.084C 107.295 130.507 103.673 138.681 101.196 147.002C 100.544 149.218 99.9818 151.464 99.4952 153.735C 101.593 149.808 103.817 145.969 106.865 142.616C 112.615 136.629 119.859 133.172 126.939 129.815C 134.075 126.522 141.349 123.596 148.275 120.026C 150.98 118.622 153.765 117.041 156.304 115.349C 160.173 112.762 163.704 109.754 166.44 106.046C 171.088 99.9189 172.291 91.8288 170.909 84.3196C 171.982 89.4668 172.082 94.9534 170.353 100.065C 168.681 105.193 165.245 109.671 161.139 113.269C 152.812 120.494 142.534 124.976 132.74 129.734C 130.555 130.792 127.532 132.011 124.98 133.194C 124.419 133.455 124.611 134.298 125.23 134.292C 125.521 134.289 125.758 134.289 125.885 134.295C 129.871 134.513 133.66 134.849 137.511 135.395C 143.537 136.233 149.698 137.09 155.788 136.453C 161.87 135.962 167.732 132.971 171.044 127.817C 168.939 131.413 165.595 134.39 161.524 135.958C 157.473 137.565 153.006 138.016 148.649 137.993C 137.002 137.931 123.817 132.93 113.407 141.032C 107.685 145.485 104.359 152.142 102.35 159.139C 101.306 162.756 101.105 165.835 100.484 169.648C 100.321 170.67 100.584 177.484 100.642 178.228C 101.86 193.963 104.471 198.03 111.531 211.153C 112.941 213.772 115.378 216.897 116.702 219.877C 116.87 220.258 116.589 220.686 116.174 220.686L 77.2216 220.686C 76.7665 220.686 76.4937 220.18 76.74 219.797C 79.1205 216.089 81.3652 213.112 82.4318 209.18C 84.0782 203.112 86.0877 195.286 86.8007 189.025C 87.0976 186.437 87.5121 176.411 87.7323 167.437C 87.9183 159.869 84.6517 152.599 78.7955 147.815C 77.2982 146.592 75.7156 145.454 74.0718 144.418C 62.7002 137.254 50.5079 136.185 37.4295 135.567C 30.6043 135.237 23.4827 134.835 16.7259 132.578C 9.95756 130.384 4.01938 125.859 0 120.16C 5.88683 127.951 15.3521 132.283 24.8951 133.092C 31.5724 133.843 38.1897 133.411 44.9254 133.379Z"/>
<path id="path85_fill" fill-rule="evenodd" d="M 0 51.6091C 0 51.6091 56.0795 24.3731 124.035 23.6614C 191.99 22.9496 227.015 39.0811 275.709 39.0811C 324.404 39.0811 412.396 2.22738e-15 519.667 0C 626.938 0 805.431 39.9412 852 43.6007C 768.245 79.7246 589.346 99.5945 398.462 106.334C 207.579 113.074 0 51.6091 0 51.6091Z"/>
<path id="path86_fill" d="M 0 0L 865 0L 865 63L 0 63L 0 0Z"/>
</defs>
</svg>
