<svg width="366" height="490" viewBox="0 0 366 490" version="1.1" xmlns="http://www.w3.org/2000/svg" xmlns:xlink="http://www.w3.org/1999/xlink">
<title>ARbre_illus</title>
<desc>Created using Figma</desc>
<g id="Canvas" transform="translate(-2053 -1170)">
<g id="ARbre_illus">
<g id="Fill 4">
<use xlink:href="#path0_fill" transform="translate(2125 1232)" fill="#FFFFFF"/>
</g>
<g id="Fill 6">
<use xlink:href="#path1_fill" transform="translate(2198 1223)" fill="#FFFFFF"/>
</g>
<g id="Fill 8">
<use xlink:href="#path2_fill" transform="translate(2187 1202)" fill="#FFFFFF"/>
</g>
<g id="Fill 10">
<use xlink:href="#path3_fill" transform="translate(2254 1192)" fill="#FFFFFF"/>
</g>
<g id="Fill 12">
<use xlink:href="#path4_fill" transform="translate(2254 1264)" fill="#FFFFFF"/>
</g>
<g id="Fill 14">
<use xlink:href="#path5_fill" transform="translate(2051 1282)" fill="#FFFFFF"/>
</g>
<g id="Fill 16">
<use xlink:href="#path6_fill" transform="translate(2259 1312)" fill="#FFFFFF"/>
</g>
<g id="Fill 18">
<use xlink:href="#path7_fill" transform="translate(2106 1446)" fill="#FFFFFF"/>
</g>
<g id="Fill 20">
<use xlink:href="#path8_fill" transform="translate(2228 1293)" fill="#FFFFFF"/>
</g>
<g id="Fill 22">
<use xlink:href="#path9_fill" transform="translate(2214 1265)" fill="#FFFFFF"/>
</g>
<g id="Fill 24">
<use xlink:href="#path10_fill" transform="translate(2229 1329)" fill="#FFFFFF"/>
</g>
<g id="Fill 26">
<use xlink:href="#path11_fill" transform="translate(2294 1320)" fill="#FFFFFF"/>
</g>
<g id="Fill 28">
<use xlink:href="#path12_fill" transform="translate(2209 1245)" fill="#FFFFFF"/>
</g>
<g id="Fill 30">
<use xlink:href="#path13_fill" transform="translate(2065 1310)" fill="#FFFFFF"/>
</g>
<g id="Fill 32">
<use xlink:href="#path14_fill" transform="translate(2157 1337)" fill="#FFFFFF"/>
</g>
<g id="Fill 34">
<use xlink:href="#path15_fill" transform="translate(2166 1366)" fill="#FFFFFF"/>
</g>
<g id="Fill 36">
<use xlink:href="#path16_fill" transform="translate(2141 1260)" fill="#FFFFFF"/>
</g>
<g id="Fill 38">
<use xlink:href="#path17_fill" transform="translate(2102 1293)" fill="#FFFFFF"/>
</g>
<g id="Fill 40">
<use xlink:href="#path18_fill" transform="translate(2112 1345)" fill="#FFFFFF"/>
</g>
<g id="Fill 42">
<use xlink:href="#path19_fill" transform="translate(2157 1282)" fill="#FFFFFF"/>
</g>
<g id="Fill 44">
<use xlink:href="#path20_fill" transform="translate(2119 1267)" fill="#FFFFFF"/>
</g>
<g id="Fill 46">
<use xlink:href="#path21_fill" transform="translate(2166 1391)" fill="#FFFFFF"/>
</g>
<g id="Fill 48">
<use xlink:href="#path22_fill" transform="translate(2130 1331)" fill="#FFFFFF"/>
</g>
<g id="Fill 50">
<use xlink:href="#path23_fill" transform="translate(2137 1356)" fill="#FFFFFF"/>
</g>
<g id="Fill 52">
<use xlink:href="#path24_fill" transform="translate(2141 1313)" fill="#FFFFFF"/>
</g>
<g id="Fill 54">
<use xlink:href="#path25_fill" transform="translate(2069 1339)" fill="#FFFFFF"/>
</g>
<g id="Fill 56">
<use xlink:href="#path26_fill" transform="translate(2179 1262)" fill="#FFFFFF"/>
</g>
<g id="Fill 58">
<use xlink:href="#path27_fill" transform="translate(2162 1237)" fill="#FFFFFF"/>
</g>
<g id="Fill 60">
<use xlink:href="#path28_fill" transform="translate(2162 1224)" fill="#FFFFFF"/>
</g>
<g id="Fill 62">
<use xlink:href="#path29_fill" transform="translate(2176 1241)" fill="#FFFFFF"/>
</g>
<g id="Fill 64">
<use xlink:href="#path30_fill" transform="translate(2131 1208)" fill="#FFFFFF"/>
</g>
<g id="Fill 66">
<use xlink:href="#path31_fill" transform="translate(2128 1301)" fill="#FFFFFF"/>
</g>
<g id="Fill 68">
<use xlink:href="#path32_fill" transform="translate(2171 1185)" fill="#FFFFFF"/>
</g>
<g id="Fill 70">
<use xlink:href="#path33_fill" transform="translate(2100 1320)" fill="#FFFFFF"/>
</g>
<g id="Fill 72">
<use xlink:href="#path34_fill" transform="translate(2093 1361)" fill="#FFFFFF"/>
</g>
<g id="Fill 74">
<use xlink:href="#path35_fill" transform="translate(2310 1375)" fill="#FFFFFF"/>
</g>
<g id="Fill 76">
<use xlink:href="#path36_fill" transform="translate(2184 1331)" fill="#FFFFFF"/>
</g>
<g id="Fill 78">
<use xlink:href="#path37_fill" transform="translate(2352 1490)" fill="#FFFFFF"/>
</g>
<g id="Fill 80">
<use xlink:href="#path38_fill" transform="translate(2257 1403)" fill="#FFFFFF"/>
</g>
<g id="Fill 82">
<use xlink:href="#path39_fill" transform="translate(2386 1333)" fill="#FFFFFF"/>
</g>
<g id="Fill 84">
<use xlink:href="#path40_fill" transform="translate(2279 1361)" fill="#FFFFFF"/>
</g>
<g id="Fill 86">
<use xlink:href="#path41_fill" transform="translate(2229 1363)" fill="#FFFFFF"/>
</g>
<g id="Fill 88">
<use xlink:href="#path42_fill" transform="translate(2195 1274)" fill="#FFFFFF"/>
</g>
<g id="Fill 90">
<use xlink:href="#path43_fill" transform="translate(2175 1298)" fill="#FFFFFF"/>
</g>
<g id="Fill 92">
<use xlink:href="#path44_fill" transform="translate(2309 1434)" fill="#FFFFFF"/>
</g>
<g id="Fill 94">
<use xlink:href="#path45_fill" transform="translate(2080 1485)" fill="#FFFFFF"/>
</g>
<g id="Fill 96">
<use xlink:href="#path46_fill" transform="translate(2309 1494)" fill="#FFFFFF"/>
</g>
<g id="Fill 98">
<use xlink:href="#path47_fill" transform="translate(2331 1462)" fill="#FFFFFF"/>
</g>
<g id="Fill 100">
<use xlink:href="#path48_fill" transform="translate(2355 1454)" fill="#FFFFFF"/>
</g>
<g id="Fill 102">
<use xlink:href="#path49_fill" transform="translate(2365 1440)" fill="#FFFFFF"/>
</g>
<g id="Fill 104">
<use xlink:href="#path50_fill" transform="translate(2271 1450)" fill="#FFFFFF"/>
</g>
<g id="Fill 106">
<use xlink:href="#path51_fill" transform="translate(2061 1446)" fill="#FFFFFF"/>
</g>
<g id="Fill 108">
<use xlink:href="#path52_fill" transform="translate(2159 1442)" fill="#FFFFFF"/>
</g>
<g id="Fill 110">
<use xlink:href="#path53_fill" transform="translate(2200 1353)" fill="#FFFFFF"/>
</g>
<g id="Fill 112">
<use xlink:href="#path54_fill" transform="translate(2055 1392)" fill="#FFFFFF"/>
</g>
<g id="Fill 114">
<use xlink:href="#path55_fill" transform="translate(2114 1373)" fill="#FFFFFF"/>
</g>
<g id="Fill 116">
<use xlink:href="#path56_fill" transform="translate(2125 1423)" fill="#FFFFFF"/>
</g>
<g id="Fill 118">
<use xlink:href="#path57_fill" transform="translate(2077 1397)" fill="#FFFFFF"/>
</g>
<g id="Fill 120">
<use xlink:href="#path58_fill" transform="translate(2113 1407)" fill="#FFFFFF"/>
</g>
<g id="Fill 122">
<use xlink:href="#path59_fill" transform="translate(2307 1241)" fill="#FFFFFF"/>
</g>
<g id="Fill 124">
<use xlink:href="#path60_fill" transform="translate(2341 1329)" fill="#FFFFFF"/>
</g>
<g id="Fill 126">
<use xlink:href="#path61_fill" transform="translate(2340 1265)" fill="#FFFFFF"/>
</g>
<g id="Fill 128">
<use xlink:href="#path62_fill" transform="translate(2312 1359)" fill="#FFFFFF"/>
</g>
<g id="Fill 130">
<use xlink:href="#path63_fill" transform="translate(2355 1301)" fill="#FFFFFF"/>
</g>
<g id="Fill 132">
<use xlink:href="#path64_fill" transform="translate(2303 1283)" fill="#FFFFFF"/>
</g>
<g id="Fill 134">
<use xlink:href="#path65_fill" transform="translate(2255 1232)" fill="#FFFFFF"/>
</g>
<g id="Fill 138">
<use xlink:href="#path66_fill" transform="translate(2306 1198)" fill="#FFFFFF"/>
</g>
<g id="Fill 140">
<use xlink:href="#path67_fill" transform="translate(2264 1287)" fill="#FFFFFF"/>
</g>
<g id="Fill 142">
<use xlink:href="#path68_fill" transform="translate(2268 1170)" fill="#FFFFFF"/>
</g>
<g id="Fill 144">
<use xlink:href="#path69_fill" transform="translate(2272 1219)" fill="#FFFFFF"/>
</g>
<g id="Fill 146">
<use xlink:href="#path70_fill" transform="translate(2275 1252)" fill="#FFFFFF"/>
</g>
<g id="Fill 148">
<use xlink:href="#path71_fill" transform="translate(2390 1295)" fill="#FFFFFF"/>
</g>
<g id="Fill 150">
<use xlink:href="#path72_fill" transform="translate(2386 1387)" fill="#FFFFFF"/>
</g>
<g id="Fill 152">
<use xlink:href="#path73_fill" transform="translate(2383 1439)" fill="#FFFFFF"/>
</g>
<g id="Fill 154">
<use xlink:href="#path74_fill" transform="translate(2341 1340)" fill="#FFFFFF"/>
</g>
<g id="Fill 156">
<use xlink:href="#path75_fill" transform="translate(2333 1289)" fill="#FFFFFF"/>
</g>
<g id="Fill 158">
<use xlink:href="#path76_fill" transform="translate(2373 1353)" fill="#FFFFFF"/>
</g>
<g id="Fill 160">
<use xlink:href="#path77_fill" transform="translate(2324 1315)" fill="#FFFFFF"/>
</g>
<g id="Fill 162">
<use xlink:href="#path78_fill" transform="translate(2350 1389)" fill="#FFFFFF"/>
</g>
<g id="Fill 164">
<use xlink:href="#path79_fill" transform="translate(2323 1427)" fill="#FFFFFF"/>
</g>
<g id="Fill 166">
<use xlink:href="#path80_fill" transform="translate(2343 1412)" fill="#FFFFFF"/>
</g>
<g id="Fill 168">
<use xlink:href="#path81_fill" transform="translate(2379 1423)" fill="#FFFFFF"/>
</g>
<g id="Fill 170">
<use xlink:href="#path82_fill" transform="translate(2113 1361)" fill="#E7EB96"/>
</g>
<g id="Group 174">
<mask id="mask0_outline" mask-type="alpha">
<g id="Clip 173">
<use xlink:href="#path83_fill" transform="translate(2024 1199.64)" fill="#FFFFFF"/>
</g>
</mask>
<g id="Fill 172" mask="url(#mask0_outline)">
<use xlink:href="#path84_fill" transform="translate(2024 1199.64)" fill="#FFFFFF"/>
</g>
</g>
</g>
</g>
<defs>
<path id="path0_fill" fill-rule="evenodd" d="M 24.1987 7.67919C 19.0227 5.80877 9.96416 4.03979 10.7888 4.34328C 11.0912 4.69121 16.8307 5.97476 25 10.5339C 21.7214 10.0635 16.1431 11 15.2237 11C 10.0624 10.7334 7.76349 6.09046 2.03695 3.71869C 0.935755 3.29782 0.260219 3.15195 0 3.10751C 0.267974 3.13099 1.00038 3.15446 2.20842 2.97253C 6.222 2.49634 10.1287 -1.11539 15.0626 0.345897C 21.3673 2.64054 22.0523 4.7566 24.1987 7.67919Z"/>
<path id="path1_fill" fill-rule="evenodd" d="M 37.4553 12.4361C 40.1223 14.3472 44.0684 16.7163 47.9914 21C 44.3236 19.2074 37.5854 19.178 36.4116 18.8577C 30.0254 16.8808 27.9252 10.1414 23.9328 4.19931C 23.3943 3.37789 22.973 2.85768 22.6982 2.54867C 19.6622 4.88225 18.7743 9.54074 15.1338 11.5151C 9.50616 14.5498 7.41708 14.3109 3.39133 14.9047C 6.76639 10.4401 14.4069 5.36264 15.0294 4.96361L 15.0345 4.96188C 15.1056 4.91514 15.0867 4.92639 15.0294 4.96361C 14.6372 5.03112 8.27754 7.42615 0 14.4199C 1.59763 11.1663 4.40847 4.75068 5.40335 3.7094C 10.5293 -1.68309 17.3642 0.155375 23.6956 0.974203C 24.9354 1.15164 25.646 1.13174 25.9029 1.11183C 25.6443 1.15338 24.9191 1.32043 23.7975 1.85189C 23.4182 2.03539 23.0783 2.26217 22.7547 2.50539C 23.104 2.74862 23.6871 3.10437 24.5775 3.50339C 28.932 5.47776 34.4176 2.62138 39.2772 5.68809C 45.7054 10.0739 46.363 12.8983 48 17.2348C 42.2345 13.3917 32.1401 8.79375 33.0794 9.23086C 33.2181 9.3884 34.79 10.5102 37.4553 12.4361Z"/>
<path id="path2_fill" fill-rule="evenodd" d="M 13.079 13.2383C 9.16543 17.5163 7.51805 18.0211 4.71455 20.9009C 3.79279 15.6045 9.21317 8.63844 10.549 7.11876C 10.7364 6.98171 10.8345 6.90278 10.8059 6.87849C 10.9282 6.71368 10.8076 6.82558 10.549 7.11876C 9.18366 8.11714 2.80158 12.337 1.83815 23C -0.0071218 19.6544 -0.460194 11.055 0.465914 9.41477C 4.18337 0.7876 12.047 1.51535 18.6609 0.512634C 19.988 0.328745 20.7275 0.101486 21 0C 20.7309 0.125773 20.0227 0.512634 19.0046 1.38003C 15.3817 4.4914 15.9841 10.2353 13.079 13.2383Z"/>
<path id="path3_fill" fill-rule="evenodd" d="M 0 21C 0.259597 20.9118 0.975244 20.6245 2.03468 19.9056C 5.81375 17.2446 5.15161 11.842 8.03612 8.97239C 12.0309 4.77781 13.8139 4.12252 16.9624 1.58356C 17.1019 6.96242 11.4565 13.8011 10.4041 14.9625C 10.3269 15.0201 10.2751 15.0633 10.2769 15.0777C 10.1796 15.1973 10.2418 15.143 10.4041 14.9625C 11.332 14.2639 17.6097 10.2559 20.1469 0C 21.1125 3.47655 21.294 11.1934 20.5082 12.7626C 16.9335 20.7423 8.81053 20.5456 2.30042 20.7575C 0.991908 20.7932 0.262228 20.9339 0 21Z"/>
<path id="path4_fill" fill-rule="evenodd" d="M 0 7.69697C 1.79599 4.322 9.20358 -0.068341 11.0055 0.0348583C 20.0888 -0.565097 22.9552 6.70521 26.595 12.1442C 27.2983 13.2409 27.7985 13.7988 28 14C 27.7789 13.8137 27.1532 13.3511 25.9889 12.8237C 21.7798 10.9635 17.0977 14.0805 13.2616 12.8648C 7.89415 11.3649 6.80324 10.1125 3.1353 9.08404C 7.20358 5.61987 16.0009 7.49145 17.5826 7.93485C 17.6586 7.97596 17.7132 8.00482 17.7371 8.01269C 17.9121 8.04243 17.8378 8.00832 17.5826 7.93485C 17.1029 7.68123 15.5928 6.83552 12.9518 6.1656C 9.99573 5.45982 5.03969 4.84587 0 7.69697Z"/>
<path id="path5_fill" fill-rule="evenodd" d="M 12.9981 14.3113C 10.7228 19.8055 9.24039 21.0155 7.11507 24.4736C 5.27811 19.317 8.09572 10.8035 8.6319 9.38414C 8.67335 9.31347 8.70157 9.26549 8.69628 9.25066C 8.74302 9.10934 8.71127 9.1704 8.6319 9.38414C 8.06132 10.3228 3.71895 16.2803 4.63169 27C 2.6069 23.924 -0.158675 16.6283 0.00711808 14.915C 0.481569 6.28982 7.97578 3.5305 13.9567 1.02068C 15.1622 0.534766 15.7848 0.150921 16 0C 15.7945 0.169241 15.2363 0.689176 14.5202 1.73428C 12.0157 5.57535 14.6886 10.4781 12.9981 14.3113Z"/>
<path id="path6_fill" fill-rule="evenodd" d="M 0 4.76378C 2.39311 2.58941 9.1082 -0.23779 10.7944 0.0159434C 19.1283 0.534593 21.2087 7.76988 22.4227 13.1163C 22.6654 14.2233 22.9063 14.803 23 15C 22.8896 14.8065 22.5252 14.2586 21.7167 13.4974C 18.6859 10.8336 14.1774 12.7413 11.1895 11.2877C 6.751 9.34819 5.65518 8.16725 2.4956 6.64141C 6.79918 4.38274 14.1432 6.99921 15.5955 7.63914C 15.7094 7.72343 15.7839 7.77676 15.7882 7.76386C 15.9442 7.80944 15.8496 7.75095 15.5955 7.63914C 14.5794 6.8874 9.28865 2.79927 0 4.76378Z"/>
<path id="path7_fill" fill-rule="evenodd" d="M 14.2641 9.105C 11.2786 14.4883 6.05818 13.6622 1.58725 13.8298C 0.684248 13.8529 0.181449 13.953 0 14C 0.178905 13.9367 0.676617 13.7332 1.41852 13.2235C 4.03087 11.3892 3.94524 7.49985 6.12516 5.62873C 9.10635 2.94606 10.2883 2.69122 12.4708 1.04331C 12.4479 4.75133 8.21521 9.12125 7.34273 9.96616C 7.26812 10.0158 7.21725 10.0542 7.22573 10.0705C 7.13924 10.156 7.19266 10.1115 7.34273 9.96616C 8.09312 9.46332 12.6853 7.12699 14.6507 0C 15.3265 2.45776 14.9254 8.05742 14.2641 9.105Z"/>
<path id="path8_fill" fill-rule="evenodd" d="M 1.18368 13.5743C -0.648861 15.4328 0.0405582 15.6375 0.648453 13.2103C 1.53637 10.1244 0.155757 5.67842 3.7659 2.6131C 8.73274 -0.848774 10.6787 0.0376774 13.7324 0.286055C 9.39912 2.15146 4.11327 7.77936 4.76104 7.36397C 5.14652 7.31943 8.45538 3.5792 16 1.37292C 13.7882 3.08159 11.618 6.94515 11.3389 7.48559C 9.221 10.2751 4.97815 9.94967 1.18368 13.5743Z"/>
<path id="path9_fill" fill-rule="evenodd" d="M 2.68018 6.63867C 1.12682 6.60204 0.262492 6.72556 0 6.77412C 0.274581 6.70937 1.17863 6.44785 2.64133 5.71951C 7.22458 3.75426 11.7465 -1.02638 17.8348 0.197742C 25.5438 2.24903 26.453 4.59846 29.4984 7.66772C 23.1684 6.54752 12.2353 5.0491 13.2317 5.50399C 13.71 5.64029 20.4433 7.12253 31 10.9244C 27.1265 11.0888 20.4416 12.8419 19.3096 12.9884C 12.9804 13.2892 10.3944 7.62853 2.68018 6.63867Z"/>
<path id="path10_fill" fill-rule="evenodd" d="M 18 1.69538C 16.0124 3.41022 13.3399 7.13445 12.8553 7.68247C 9.87044 10.4042 6.02519 9.05207 1.52387 11.0938C -0.717921 12.1741 -0.180059 12.605 1.17768 10.5668C 3.03698 7.94555 3.06569 3.50637 6.699 1.48999C 11.5516 -0.785979 13.0647 0.109024 15.9001 0.541668C 12.0573 2.45579 5.95511 6.56459 6.62047 6.30762C 6.95991 6.24557 10.9183 3.91454 18 1.69538Z"/>
<path id="path11_fill" fill-rule="evenodd" d="M 18 11C 15.5165 10.0873 10.9561 9.54519 10.2387 9.38458C 6.38271 8.08528 5.59352 4.07351 1.55321 1.12056C -0.514106 -0.318954 -0.61189 0.358313 1.83012 0.563108C 5.02931 0.92681 8.86193 -1.18487 12.4401 1.02029C 16.8621 4.16699 16.8595 5.92092 17.9264 8.60874C 14.3301 6.1699 7.69891 2.81415 8.25705 3.27218C 8.48291 3.53816 12.4973 5.87673 18 11Z"/>
<path id="path12_fill" fill-rule="evenodd" d="M 7.63117 1.85494C 15.0463 -2.6221 21.8071 1.94503 27.0545 5.6636C 28.1088 6.42036 28.764 6.73696 29 6.83649C 28.7518 6.75584 28.0159 6.56107 26.7438 6.51388C 22.1255 6.46069 19.5613 11.3762 15.4454 12.1449C 9.56369 13.389 7.62596 12.8794 3.49104 12.9746C 6.99596 8.65888 15.7118 6.12607 17.1272 5.79059C 17.1975 5.79059 17.24 5.78801 17.2513 5.78458C 17.3858 5.73997 17.332 5.7434 17.1272 5.79059C 16.0858 5.80861 8.7315 5.77858 0 12.217C 1.66351 8.93602 6.11951 2.68635 7.63117 1.85494Z"/>
<path id="path13_fill" fill-rule="evenodd" d="M 2.09921 19.8977C 6.0807 17.6378 5.81456 12.2285 8.23524 9.83173C 11.5562 6.21046 12.9932 5.49817 15.2531 2.44297C 16.1464 5.098 15.2751 9.11773 13.5773 11.8078C 11.9778 14.5603 10.0446 16.0678 10.4794 15.7557C 10.5918 15.6215 12.2975 14.8305 14.3098 12.3961C 16.2588 10.0515 18.5548 5.57941 17.6422 0C 20.1489 2.7089 21.7071 11.1246 20.6795 12.9502C 17.0748 22.1483 8.48996 21.1453 2.27927 20.7699C 1.00306 20.6639 0.273161 20.7203 0 20.758C 0.271405 20.6972 1.0013 20.4869 2.09921 19.8977Z"/>
<path id="path14_fill" fill-rule="evenodd" d="M 0 20C 0.143189 19.7679 0.496744 19.1035 0.865324 17.9066C 2.2159 14.01 0.438407 8.76293 4.23823 4.88077C 9.51856 0.151944 11.9439 0.549529 15.8295 0C 11.4392 3.75132 5.4633 11.2514 6.15891 10.6369C 6.63533 10.5137 10.5668 5.82704 19 0.639007C 16.9326 3.38919 15.1622 8.85747 14.7547 9.69147C 12.0986 14.1814 6.49391 14.1738 1.52824 18.397C 0.609881 19.2234 0.156448 19.7822 0 20Z"/>
<path id="path15_fill" fill-rule="evenodd" d="M 0 13C 0.187684 12.8373 0.674788 12.3606 1.32775 11.4263C 3.56162 8.45985 3.64193 3.22203 8.48155 1.07244C 14.9632 -1.11629 16.8531 0.502639 20.0071 1.88321C 14.6323 2.35123 7.09182 6.92617 7.91151 6.63475C 8.33926 6.79134 13.1736 3.55608 22 3.90144C 18.9674 4.93404 15.39 8.45551 14.9204 8.95745C 11.6826 11.3419 7.12848 9.70037 1.73542 12.0335C 0.734148 12.4963 0.196413 12.8547 0 13Z"/>
<path id="path16_fill" fill-rule="evenodd" d="M 1.82448 11.4926C 0.788039 11.6973 0.214141 11.9079 0 12C 0.209002 11.89 0.758059 11.5548 1.54439 10.8317C 4.28539 8.41322 4.48069 3.59247 8.67015 1.53471C 14.3714 -0.868412 16.2584 0.102902 19.5862 0.772332C 14.8939 2.75845 7.65854 7.29864 8.40889 6.9635C 8.83118 7.00955 13.5466 4.30795 22 2.20841C 19.5057 4.01459 16.3415 8.1173 15.7591 8.74154C 12.1221 11.7561 7.27994 10.4411 1.82448 11.4926Z"/>
<path id="path17_fill" fill-rule="evenodd" d="M 10.5357 7.56431C 10.2985 7.30683 6.15468 4.84309 0 0C 2.63067 0.725947 7.41678 1.00324 8.2175 1.17116C 12.4808 2.46805 13.3879 6.73417 17.421 9.93591C 19.5149 11.5041 19.637 10.7971 17.118 10.5112C 13.7974 10.0263 9.91155 12.1671 6.30011 10.0375C 1.74599 6.9951 1.57373 5.23405 0.274407 2.49216C 4.21998 4.65364 11.1304 8.01297 10.5357 7.56431Z"/>
<path id="path18_fill" fill-rule="evenodd" d="M 9.2247 7.76906C 8.93203 7.95598 5.79916 11.6063 0 16.8061C 1.17748 14.3333 2.30914 9.6383 2.61539 8.87488C 4.64035 4.88919 8.93542 4.78437 12.7631 1.38216C 14.6591 -0.401483 13.9957 -0.654792 13.2653 1.79095C 12.1964 4.99313 13.5681 9.24699 10.856 12.4317C 7.08861 16.3807 5.35209 16.2226 2.46269 17C 5.26726 13.4895 9.76678 7.26244 9.2247 7.76906Z"/>
<path id="path19_fill" fill-rule="evenodd" d="M 0.0439364 13.4015C -0.528017 7.06468 4.60204 4.36075 8.56718 1.25821C 10.6763 -0.355077 9.93969 -0.621962 9.12249 1.67736C 7.98559 4.99204 10.6816 8.35206 9.83108 11.5795C 8.70294 16.0858 7.64399 17.108 6.32666 19.9051C 4.5127 16.0515 5.78887 9.06632 5.95091 8.29218C 5.95353 8.28448 5.95967 8.26481 5.95704 8.26053C 5.97456 8.17585 5.96842 8.20493 5.95091 8.29218C 5.85631 8.67882 3.06837 13.6436 4.6327 22C 2.88093 19.8153 0.0964895 14.653 0.0439364 13.4015Z"/>
<path id="path20_fill" fill-rule="evenodd" d="M 9.10849 1.61497C 7.81133 4.88476 10.2675 8.35152 9.39888 11.522C 8.25897 15.9969 7.25968 17.0456 5.9908 19.8731C 4.27178 16.0522 5.52568 9.22145 5.75699 8.16406C 5.77363 8.12346 5.78195 8.09236 5.78112 8.08286C 5.80026 7.97746 5.78778 8.01288 5.75699 8.16406C 5.48574 8.83789 2.90639 13.7992 4.37496 22C 2.69421 19.7911 0.0574462 14.5145 0.0283244 13.2169C -0.424311 6.68509 4.64038 3.95609 8.60926 1.15452C 10.7193 -0.299395 10.0387 -0.622487 9.10849 1.61497Z"/>
<path id="path21_fill" fill-rule="evenodd" d="M 0.0412655 18C -0.323052 14.2222 1.80895 6.06519 3.12971 4.71981C 9.17964 -2.40824 16.8381 0.356081 23.5706 1.45941C 24.9349 1.69975 25.7192 1.70574 26 1.69377C 25.7165 1.72798 24.9079 1.87509 23.6385 2.39596C 19.1649 4.28874 18.1537 10.0038 14.3783 12.1019C 9.18138 15.1664 7.3311 15.2126 3.6088 17.0489C 4.60872 11.5545 12.2907 6.34744 13.8001 5.39977C 13.9227 5.35016 14.0062 5.31167 13.9992 5.28772C 14.1523 5.18936 14.0514 5.24154 13.8001 5.39977C 12.5446 5.90268 4.92434 8.01698 0.0412655 18Z"/>
<path id="path22_fill" fill-rule="evenodd" d="M 0 3.44145C 1.74693 1.95684 6.41146 -0.0985195 7.59341 0.00366691C 13.4434 0.124961 15.2215 4.98588 16.4303 8.66376C 17.062 10.6311 17.4779 10.1558 15.9485 8.96866C 13.6253 7.27469 10.4894 8.79669 8.23117 7.86372C 4.90976 6.62668 4.07703 5.81583 1.78072 4.75741C 4.88983 3.20302 10.2719 4.80643 11.2779 5.17447C 11.3446 5.21684 11.394 5.24591 11.3983 5.2401C 11.5041 5.26752 11.4425 5.23511 11.2779 5.17447C 10.5873 4.74163 6.68182 2.08395 0 3.44145Z"/>
<path id="path23_fill" fill-rule="evenodd" d="M 0 8.50697C 1.58537 5.69529 6.81787 0.896202 8.40919 0.525999C 16.1263 -1.80111 20.7253 4.07808 23.7942 8.67131C 24.4115 9.60995 24.8421 10.0674 25 10.2174C 24.8268 10.0776 24.2952 9.69805 23.2856 9.27787C 19.5399 7.87584 16.1102 11.2975 12.7518 10.9789C 7.8479 10.7019 6.40943 9.95643 2.93723 9.51168C 6.26932 6.04939 14.0128 5.93927 15.5336 6.01466C 15.6533 6.04516 15.734 6.06634 15.7374 6.05194C 15.8903 6.04516 15.7926 6.02737 15.5336 6.01466C 14.3864 5.70799 8.08481 3.7333 0 8.50697Z"/>
<path id="path24_fill" fill-rule="evenodd" d="M 16 1.06629C 14.0157 2.97146 11.9552 7.03639 11.6346 7.62448C 9.38975 10.6685 5.20537 10.2815 1.26206 13.6514C -0.665617 15.3886 -0.00839782 15.6449 0.767239 13.2441C 1.86345 10.1627 0.707184 5.69386 4.14807 2.72281C 8.85856 -0.708189 10.7 0.0445438 13.701 0.124315C 9.72724 2.36809 4.47456 7.9546 5.0971 7.54047C 5.46673 7.46325 8.81965 3.91259 16 1.06629Z"/>
<path id="path25_fill" fill-rule="evenodd" d="M 6.76788 6.12698C 10.5613 2.57212 12.2213 2.35345 15.1541 0.695145C 14.0006 5.71261 7.53916 12.037 8.18785 11.4014C 8.33087 11.2168 13.6967 8.31281 18 0C 17.8808 2.97798 17.1913 9.2028 16.4591 10.2749C 13.2506 16.1585 7.23695 15.6352 1.84733 16.5337C 0.796822 16.7116 0.211975 16.9141 0 17C 0.206867 16.8936 0.761918 16.5669 1.56044 15.8394C 4.45658 13.3362 3.92282 8.62593 6.76788 6.12698Z"/>
<path id="path26_fill" fill-rule="evenodd" d="M 0.0695774 7.91436C 1.42937 0.62699 9.33579 -0.813326 14.1969 0.36878C 16.7509 0.923803 16.4171 0.186917 14.2898 1.07221C 11.0497 2.69696 12.1899 6.81889 10.5522 9.051C 8.20352 12.6368 6.92252 13.6156 4.9696 16.1531C 3.66647 11.9316 6.996 5.79892 7.7839 4.68115C 7.87065 4.60823 7.93439 4.55934 7.93794 4.56105C 7.98308 4.43152 7.91492 4.49414 7.7839 4.68115C 6.93934 5.38715 2.63777 9.55798 2.78738 18C 1.33553 15.4754 -0.366865 9.37097 0.0695774 7.91436Z"/>
<path id="path27_fill" fill-rule="evenodd" d="M 0.069684 7.91371C 1.43203 0.62908 9.33432 -0.812062 14.1977 0.367445C 16.7497 0.924172 16.4178 0.184728 14.2906 1.07258C 11.0516 2.69558 12.1891 6.81742 10.5524 9.04947C 8.20124 12.6377 6.92477 13.6148 4.97022 16.1531C 3.66807 11.9343 6.99381 5.80519 7.78254 4.68401C 7.87283 4.60938 7.93568 4.56134 7.94011 4.5622C 7.98525 4.43181 7.91532 4.49443 7.78254 4.68401C 6.93273 5.39343 2.63857 9.56331 2.78729 18C 1.332 15.4746 -0.366726 9.36858 0.069684 7.91371Z"/>
<path id="path28_fill" fill-rule="evenodd" d="M 1.2692 9.53896C 3.34248 6.85158 3.8619 1.74011 8.96496 0.305055C 15.5448 -0.764526 16.8596 1.18757 19.5101 2.92661C 14.5209 2.33163 6.82423 5.43471 7.66161 5.36456C 8.04175 5.47975 12.9425 3.21154 21 5.08483C 18.0569 5.55163 14.0969 8.07706 13.659 8.46765C 10.687 10.0136 6.81898 7.92463 1.64234 10.1054C 0.694599 10.5332 0.185693 10.8658 0 11C 0.176934 10.8493 0.64292 10.4067 1.2692 9.53896Z"/>
<path id="path29_fill" fill-rule="evenodd" d="M 0 19C 0.139771 18.795 0.497447 18.2058 0.891584 17.1278C 2.31274 13.5546 0.558217 8.74687 3.80508 5.03789C 8.36891 0.421338 10.6026 0.648012 14.1065 0C 10.2754 3.72802 5.16112 11.0197 5.74017 10.3959C 6.1916 10.2981 9.57216 5.70666 17 0.490551C 15.2246 3.16393 13.8625 8.38869 13.5222 9.19676C 11.2511 13.5693 6.09958 13.9794 1.46456 17.6183C 0.592943 18.3234 0.153662 18.8097 0 19Z"/>
<path id="path30_fill" fill-rule="evenodd" d="M 6.92064 13.1039C 2.8902 8.5057 2.73359 6.6885 0.873658 3.26434C 6.58015 4.61245 13.8281 12.3548 13.1216 11.5403C 12.8207 11.4493 9.72902 4.95522 0 0.00449594C 3.51927 -0.0820798 10.747 1.10083 12.0183 1.9021C 18.6829 5.84483 17.7873 12.5315 19.3014 18.8347C 19.5953 20.0698 19.8795 20.7482 20 21C 19.8575 20.7535 19.4281 20.113 18.5201 19.2119C 15.3651 16.0343 9.8953 16.4857 6.92064 13.1039Z"/>
<path id="path31_fill" fill-rule="evenodd" d="M 0.935268 8.77395C 2.39782 6.56234 2.2997 2.82953 5.47943 1.11169C 9.73683 -0.762937 11.0649 0.16485 13.3886 0.786839C 9.87133 1.8411 4.81455 5.33655 5.36269 5.10698C 5.67483 5.1503 8.89939 2.86505 15 1.97451C 13.0942 3.09115 10.806 5.96807 10.4457 6.35963C 8.15246 8.40405 4.93129 7.34112 1.23979 9.19583C -0.590731 10.1704 -0.132255 10.5056 0.935268 8.77395Z"/>
<path id="path32_fill" fill-rule="evenodd" d="M 5.49899 16.8529C 5.48175 16.9531 5.47227 17.0245 5.49209 17.0347C 5.48951 17.1927 5.4964 17.1103 5.49899 16.8529C 5.7076 15.7228 7.91702 8.98298 3.05769 0C 6.06794 1.8243 11.0945 7.60052 11.4704 9.23024C 13.8022 17.2599 7.92305 21.55 3.79042 26.236C 2.95338 27.1698 2.56977 27.774 2.44133 28C 2.55167 27.7595 2.82235 27.0645 3.01976 25.835C 3.67922 21.4794 -0.277549 17.8393 0.0155447 13.8373C 0.302605 8.26328 1.24309 6.85024 1.84652 3.11328C 5.3852 6.8392 5.51796 15.2733 5.49899 16.8529Z"/>
<path id="path33_fill" fill-rule="evenodd" d="M 0 11.4533C 3.09087 10.1741 6.65075 6.34314 7.12488 5.7658C 10.3943 3.11897 15.0913 4.8636 20.3785 1.39285C 21.3396 0.685904 21.8291 0.192726 22 0C 21.8402 0.207034 21.4208 0.812144 20.9142 1.9441C 19.1705 5.44347 19.3192 11.0325 14.3062 13.5716C 7.63149 16.1915 5.62217 14.6371 2.21435 13.4109C 7.7844 12.5558 15.4501 7.48266 14.5795 7.76376C 14.1515 7.70989 9.24783 11.2076 0 11.4533Z"/>
<path id="path34_fill" fill-rule="evenodd" d="M 3.01602 23.4459C 2.34879 24.264 2.04322 24.7981 1.94276 25C 2.02731 24.7876 2.23744 24.1732 2.37307 23.0925C 2.96579 19.2765 -0.433143 16.0282 0.0465584 12.2237C 0.555561 6.93205 1.62631 5.64948 2.74393 2.41705C 4.83101 6.67378 4.47103 14.6716 4.4367 15.3098L 4.43586 15.3115C 4.43168 15.3882 4.43335 15.3706 4.4367 15.3098C 4.45596 15.0647 6.43001 9.25919 4.39484 0C 6.173 2.39325 9.58951 7.61521 9.74606 8.92423C 11.1458 15.5319 6.45931 19.2747 3.01602 23.4459Z"/>
<path id="path35_fill" fill-rule="evenodd" d="M 12.5079 20C 9.92354 18.5843 5.05743 16.2482 4.21557 15.6031C 0.169085 11.8917 1.45235 7.00298 0.473439 1.7891C 0.287445 0.770512 0.0872125 0.206872 0 0C 0.104121 0.202489 0.424493 0.743338 1.12664 1.52612C 3.5677 4.17777 8.09385 4.37675 10.284 7.76122C 12.9813 12.4737 12.6743 14.1068 13 17.3545C 9.46878 14.0998 4.56798 7.41059 4.98446 8.09257C 5.09659 8.40463 7.42908 13.1154 12.5079 20Z"/>
<path id="path36_fill" fill-rule="evenodd" d="M 0.319578 13C -0.371336 10.5842 0.151905 4.92146 0.996169 3.84702C 4.64622 -1.6865 10.4786 -0.0571039 14.4522 1.44812C 16.599 2.25648 16.4449 1.57482 14.4092 2.06981C 11.3902 2.90773 10.8476 6.62096 8.8094 7.9564C 5.88987 10.074 4.69172 10.395 2.50944 11.9796C 2.42687 8.18446 7.00797 4.33862 8.03339 3.60797C 8.15051 3.55983 8.22044 3.53195 8.20612 3.52266C 8.30049 3.43312 8.21791 3.4762 8.03339 3.60797C 7.07875 3.99822 2.21454 5.93254 0.319578 13Z"/>
<path id="path37_fill" fill-rule="evenodd" d="M 23 20.8675C 19.4385 22.8116 10.3233 23.5652 8.45548 22.5448C -1.17962 18.5599 -0.640611 8.92038 0.810967 2.36024C 1.14273 1.0489 1.20281 0.286613 1.20978 0C 1.22981 0.289202 1.33866 1.06875 1.80539 2.27132C 3.81687 6.75525 9.867 6.38921 12.5708 9.188C 16.794 13.1332 17.6108 14.909 20.7142 17.8321C 17.5455 18.2793 13.1585 16.8532 10.1726 14.9332C 7.13713 13.0573 5.46699 10.9724 5.8153 11.4386C 5.83446 11.2729 9.94973 19.9722 23 20.8675Z"/>
<path id="path38_fill" fill-rule="evenodd" d="M 21.7721 15C 18.8067 13.191 13.3182 12.9523 12.4746 12.7654C 7.57882 11.34 5.7717 5.88063 1.56305 1.40696C 0.748357 0.547689 0.206649 0.1378 0 0C 0.220255 0.122879 0.856359 0.437098 2.00271 0.730252C 5.87886 1.823 10.3639 -1.01989 14.7945 1.59655C 20.5228 5.44441 20.8732 8.08806 22 11.8201C 17.5405 7.96343 8.87484 4.38678 9.67677 4.77472C 9.72184 5.37595 15.6118 7.55881 21.7721 15Z"/>
<path id="path39_fill" fill-rule="evenodd" d="M 21.7729 15C 18.8075 13.191 13.3187 12.9523 12.4751 12.7654C 7.57911 11.34 5.77193 5.88063 1.56311 1.40696C 0.748386 0.547689 0.206657 0.1378 0 0C 0.220264 0.122879 0.856392 0.437098 2.00278 0.730252C 5.87908 1.823 10.3643 -1.01989 14.7951 1.59655C 20.5236 5.44441 20.874 8.08806 22 11.8201C 17.5411 7.96343 8.87518 4.38678 9.67714 4.7756C 9.72222 5.37683 15.6124 7.55881 21.7729 15Z"/>
<path id="path40_fill" fill-rule="evenodd" d="M 19 4.2926C 16.866 5.22357 13.2018 7.53844 12.4565 7.74921C 8.3995 8.89453 5.76032 5.81283 1.56438 4.62893C -0.600496 4.05134 -0.452969 4.68185 1.60212 4.04327C 4.39655 3.25131 6.4036 -0.0205313 9.78814 9.71109e-05C 14.2646 0.210866 15.2158 1.34094 17.5067 2.63426C 13.7293 3.38585 7.12494 3.81008 7.75965 3.84685C 8.03926 3.94012 12.1975 4.25314 19 4.2926Z"/>
<path id="path41_fill" fill-rule="evenodd" d="M 14 0.231267C 12.99 2.35136 11.6929 6.52295 11.2703 7.17894C 8.96994 10.7455 5.14321 10.2232 1.32067 12.1534C -0.630767 13.1734 -0.137887 13.5436 0.991805 11.6935C 2.57421 9.23484 2.06376 5.46159 4.57753 3.21135C 8.01347 0.371082 9.40508 0.57333 11.8862 0C 9.5532 3.08649 4.93067 7.8235 5.42187 7.42603C 5.68463 7.30732 8.94902 4.75548 14 0.231267Z"/>
<path id="path42_fill" fill-rule="evenodd" d="M 0.575758 20.3763C -2.03807 11.0452 4.7866 5.31361 10.2149 1.50337C 11.3208 0.734123 11.8565 0.197581 12.0328 0C 11.8674 0.2169 11.4224 0.877259 10.9362 2.12773C 9.3014 6.76253 13.3594 10.9416 12.974 15.1654C 12.6096 21.3361 11.6835 23.174 10.9211 27.476C 7.14014 23.0142 7.03015 13.4232 7.11495 11.6511C 7.1435 11.5396 7.16281 11.4588 7.1561 11.4492C 7.14602 11.2753 7.12839 11.3657 7.11495 11.6511C 6.78497 12.92 4.54227 20.595 9.48529 31C 6.38446 28.7002 1.0107 22.2792 0.575758 20.3763Z"/>
<path id="path43_fill" fill-rule="evenodd" d="M 2.52533 6.18216C 7.2404 0.644622 9.90067 0.749039 13.8026 0C 9.36354 4.08692 4.59239 12.6042 5.15231 11.8552C 5.70522 11.8025 8.69672 6.0881 17 0.578175C 14.8672 3.45007 13.8201 9.09116 13.5388 9.93944C 11.5305 14.6926 5.92516 15.5823 1.38446 20.2534C 0.541519 21.1638 0.140199 21.7653 0 22C 0.12355 21.7506 0.420597 21.0499 0.681717 19.8098C 1.70079 15.7108 -0.764084 10.6263 2.52533 6.18216Z"/>
<path id="path44_fill" fill-rule="evenodd" d="M 13.5746 20C 11.4317 17.7745 6.79398 15.2016 6.09149 14.6773C 2.49734 11.4579 3.60303 6.74079 1.05329 1.6465C 0.541743 0.6911 0.156306 0.183039 0 0C 0.17318 0.17363 0.677622 0.626951 1.65009 1.21883C 4.81884 3.28529 9.88458 2.94402 12.5746 6.8537C 15.7603 12.1652 14.9787 14.0983 14.7407 17.4631C 12.1057 13.1061 6.55153 6.5646 6.96983 7.26682C 7.00091 7.67737 10.3473 11.9779 13.5746 20Z"/>
<path id="path45_fill" fill-rule="evenodd" d="M 5.35611 10.8713C 5.19742 11.2911 5.67969 17.2643 5.84636 27C 4.51036 23.9137 0.985532 19.0112 0.592801 18.0205C -1.43557 12.5497 2.30557 8.26986 3.37915 2.13509C 3.5733 0.959957 3.5733 0.261727 3.55912 0C 3.59724 0.266118 3.73465 0.983671 4.19032 2.11401C 5.66019 5.98634 10.5059 8.3489 10.9572 13.2804C 11.2772 19.8385 9.75239 21.394 8.0804 24.7841C 6.95363 19.3142 5.29937 9.96845 5.35611 10.8713Z"/>
<path id="path46_fill" fill-rule="evenodd" d="M 12.6267 14.349C 9.42414 19.4985 7.70932 20.3118 4.93197 23.1705C 4.40643 17.1696 9.78594 7.87726 9.24632 8.81802C 9.20583 9.08161 3.77526 14.0637 2.00586 25C 0.868508 21.6245 -0.32958 14.3161 0.0832809 12.7961C 1.92487 4.98561 9.03065 3.68588 14.9762 1.06909C 16.1611 0.557521 16.7817 0.158672 17 0C 16.7905 0.178615 16.2359 0.710124 15.5158 1.76794C 12.9902 5.51191 14.9735 10.6441 12.6267 14.349Z"/>
<path id="path47_fill" fill-rule="evenodd" d="M 7.81288 21C 7.02646 18.0476 4.01927 14.4575 3.52349 14.0231C 1.55232 10.9391 3.29013 6.76839 0.973618 1.62936C 0.502623 0.687049 0.144461 0.182579 0 0C 0.162412 0.174791 0.629988 0.628209 1.53693 1.23046C 4.38427 3.28901 9.384 3.55898 11.2406 8.33199C 13.0024 14.6625 11.3466 16.3637 9.83619 19.2512C 9.78149 14.107 5.85539 6.72339 6.02464 7.54629C 5.92462 7.91491 8.73521 12.6715 7.81288 21Z"/>
<path id="path48_fill" fill-rule="evenodd" d="M 7.18338 20C 5.77358 17.6813 2.21617 14.5606 1.71737 13.9428C -0.770292 10.3646 1.31779 6.52401 0.469932 1.63586C 0.284124 0.713261 0.0874922 0.194986 0 0C 0.105532 0.190766 0.421225 0.692158 1.10222 1.41892C 3.30847 3.92842 7.78139 4.7396 9.20382 8.57095C 10.7706 13.6997 9.69991 15.2013 8.76094 18.0468C 7.32048 13.8162 3.97233 7.07943 4.19511 7.75555C 4.11033 8.11345 6.02433 12.496 7.18338 20Z"/>
<path id="path49_fill" fill-rule="evenodd" d="M 0 0.377845C 2.44348 -0.477595 8.39229 0.239413 9.49661 1.33356C 15.1814 5.96128 12.6905 12.2555 10.7392 16.3526C 9.68399 18.6119 10.3969 18.524 10.1137 16.2328C 9.59321 12.8288 5.88801 11.7621 4.78203 9.57915C 2.96649 6.42627 2.67834 5.12359 1.07267 2.76314C 5.00606 2.55904 8.56968 7.82213 9.25842 9.07423C 9.30672 9.24727 9.32671 9.33246 9.33337 9.30317C 9.42748 9.4212 9.38834 9.31205 9.25842 9.07423C 8.92446 7.86472 7.26716 2.31235 0 0.377845Z"/>
<path id="path50_fill" fill-rule="evenodd" d="M 13.9255 18C 11.9257 15.8868 7.55187 13.788 6.92475 13.3603C 3.48778 10.7096 4.04354 6.11979 1.19506 1.53423C -0.297599 -0.762357 -0.664467 -0.10305 1.69457 1.07018C 4.76636 2.71591 9.38033 1.86473 12.2263 5.43428C 15.6221 10.336 14.9723 12.308 14.9111 15.5344C 12.3615 11.39 6.69305 5.65997 7.14387 6.28631C 7.14471 6.71402 10.7832 10.4129 13.9255 18Z"/>
<path id="path51_fill" fill-rule="evenodd" d="M 0.817221 18.4772C -1.8242 11.825 2.4953 6.65352 5.84894 1.84296C 7.63116 -0.630741 6.73417 -0.693182 6.59811 2.13635C 6.47297 6.25492 10.6833 8.99293 10.9159 13.1047C 11.2804 18.8647 10.3918 20.5266 9.55281 24.191C 6.79212 19.8765 5.58942 11.482 5.49955 10.7011C 5.50039 10.6985 5.50123 10.6848 5.50123 10.6814C 5.48947 10.5959 5.48947 10.6241 5.49955 10.7011C 5.44664 11.1065 4.70166 17.5166 8.05278 27C 5.75739 24.6195 1.31443 19.7825 0.817221 18.4772Z"/>
<path id="path52_fill" fill-rule="evenodd" d="M 0.274295 14C -0.413087 11.3466 0.304413 5.35292 1.18224 4.2696C 4.7972 -1.33794 12.2202 -0.69235 16.0088 2.04805C 16.5358 2.64886 16.8707 2.91673 17 3.0063C 16.8724 2.93278 16.4978 2.75702 15.8228 2.67083C 12.7916 2.86011 12.3673 7.08774 10.0651 8.57498C 6.68484 11.0264 5.29945 11.3585 2.75365 12.9733C 2.95385 9.04058 7.84878 4.74957 9.03133 3.91554C 9.17926 3.85723 9.26607 3.82512 9.26164 3.82174C 9.3573 3.70936 9.25189 3.75837 9.03133 3.91554C 7.89396 4.36509 2.71556 6.6458 0.274295 14Z"/>
<path id="path53_fill" fill-rule="evenodd" d="M 0 12C 0.319541 9.58495 1.37851 4.5372 2.13731 3.70781C 5.41546 -0.901292 10.7253 0.0163275 15.3212 0.189432C 17.7085 0.249094 17.3635 -0.349208 15.455 0.793615C 12.6302 2.3297 12.617 6.2153 10.0343 7.89676C 6.54486 10.4261 5.11177 10.4933 2.48502 11.6353C 3.67516 7.98584 8.73499 3.9347 9.29837 3.51622C 9.30365 3.51202 9.32125 3.5053 9.32389 3.50362C 9.38287 3.45572 9.35999 3.46916 9.29837 3.51622C 8.9709 3.68512 4.19276 5.62036 0 12Z"/>
<path id="path54_fill" fill-rule="evenodd" d="M 18 0.249765C 16.5326 3.08384 15.0353 8.56593 14.574 9.43501C 11.8808 14.1228 6.4988 13.9665 1.55616 17.5957C 0.629143 18.3085 0.165194 18.8029 0 19C 0.150256 18.7859 0.534245 18.1844 0.970076 17.0851C 2.53503 13.4567 1.11857 8.48947 4.55338 4.99361C 9.28777 0.647351 11.3958 0.863134 14.9606 0C 11.5302 4.06421 5.68162 11.0338 6.34328 10.4579C 6.73693 10.2769 10.8 6.23564 18 0.249765Z"/>
<path id="path55_fill" fill-rule="evenodd" d="M 0.0761581 9.54432C 1.75906 2.50561 8.68041 1.326 14.1131 0.435794C 15.2009 0.270785 15.7924 0.0820817 16 0C 15.7969 0.0981595 15.2347 0.409562 14.4454 1.10683C 11.6391 3.73429 13.0948 8.08208 11.1313 10.8593C 8.43631 14.9109 7.02691 15.7081 4.78186 18.2407C 3.83751 13.8286 7.50176 7.36112 8.19399 6.26782C 8.25011 6.21197 8.28486 6.17305 8.28397 6.16205C 8.34366 6.05035 8.30268 6.10028 8.19399 6.26782C 7.53116 6.95832 2.92702 11.18 2.35507 20C 1.01071 17.2701 -0.338108 10.9355 0.0761581 9.54432Z"/>
<path id="path56_fill" fill-rule="evenodd" d="M 0.0555516 7.68222C 1.2961 2.17109 6.43527 1.12292 10.5226 0.377126C 12.6716 0.0291439 12.2253 -0.457355 10.7793 0.90839C 8.70247 3.01064 9.85914 6.47441 8.36025 8.73461C 6.31365 12.0168 5.2375 12.6435 3.50878 14.6368C 2.90571 11.1105 5.63424 5.93724 6.14421 5.07235C 6.18112 5.02759 6.20544 4.99971 6.20377 4.98958C 6.25074 4.90258 6.22222 4.9389 6.14421 5.07235C 5.66024 5.62051 2.24475 8.98461 1.65677 16C 0.703924 13.793 -0.241374 8.77177 0.0555516 7.68222Z"/>
<path id="path57_fill" fill-rule="evenodd" d="M 2.30175 1.9097C 1.12183 0.75805 0.330582 0.196373 0.0227767 0C 0.35145 0.175792 1.28182 0.607983 2.94779 1.03503C 8.35699 2.60773 15.5956 0.323286 20.9179 5.14514C 27.3905 11.7944 26.9044 14.7485 28 19.6587C 22.4595 14.595 12.2506 6.77186 13.0688 7.70741C 13.361 8.23565 19.3841 13.56 27.4722 23.8005C 23.4777 21.5967 15.7513 19.3929 14.5609 18.8415C 12.5463 17.7516 11.1872 16.2912 10.0751 14.6088C 9.92297 14.872 9.64386 15.4268 9.3604 16.3718C 8.25439 20.2701 11.6402 23.8494 11.1438 27.4107C 10.5803 32.4444 9.65864 33.7632 8.91261 37.1848C 5.79021 33.5489 6.1328 25.7531 6.26235 24.3331C 6.29018 24.2404 6.30496 24.1761 6.29105 24.1676C 6.29626 24.0244 6.28148 24.105 6.26235 24.3331C 5.96411 25.3527 3.61036 31.4677 7.62921 40C 4.97983 38.146 0.576652 32.6227 0.330582 31.0698C -1.45625 23.4472 4.38161 19.6338 8.69871 15.9191C 9.46909 15.2699 9.87689 14.8206 10.0673 14.5882C 7.65617 10.924 6.43799 6.20418 2.30175 1.9097Z"/>
<path id="path58_fill" fill-rule="evenodd" d="M 1.68845 5.88848C 5.63366 0.978702 7.80778 0.988977 11.1401 0C 7.80866 3.92594 3.65183 11.4053 4.18132 10.77C 4.56152 10.5928 7.35733 5.89362 14 0.164401C 12.5731 2.89757 11.7864 7.98032 11.5668 8.7929C 9.84844 13.1401 4.96281 13.915 1.1695 18.2802C -0.681488 20.5519 0.119321 20.712 0.524993 17.9223C 1.19497 14.2695 -1.07311 9.83925 1.68845 5.88848Z"/>
<path id="path59_fill" fill-rule="evenodd" d="M 0 4.06809C 2.21212 2.16809 8.15113 -0.20144 9.61959 0.0136537C 16.8993 0.64582 18.764 7.32247 19.578 12.2731C 19.7401 13.2752 19.9245 13.8129 20 14C 19.9082 13.8173 19.6106 13.3066 18.9407 12.5923C 16.3743 10.0531 12.3918 11.7363 9.77484 10.3539C 5.85839 8.48713 4.88313 7.39417 2.13235 5.87802C 6.02136 3.98852 12.4553 6.48833 13.723 7.08465C 13.8208 7.16159 13.886 7.20793 13.8929 7.19656C 14.0275 7.24028 13.9435 7.18869 13.723 7.08465C 12.8413 6.40177 8.25321 2.59216 0 4.06809Z"/>
<path id="path60_fill" fill-rule="evenodd" d="M 31 12.2051C 27.0009 12.0459 20.3298 13.9221 19.1588 13.9977C 12.6522 14.1337 9.45465 8.26066 2.48946 5.38415C 1.13843 4.87376 0.312898 4.70748 0 4.66214C 0.320613 4.6817 1.20787 4.68881 2.66777 4.41139C 7.54126 3.66625 11.9801 -1.1638 17.9217 0.261565C 25.6036 2.57522 26.7077 5.13162 29.667 8.63323C 23.1707 7.01136 12.0907 5.48196 13.1143 5.77984C 13.5043 6.1942 20.5218 7.48618 31 12.2051Z"/>
<path id="path61_fill" fill-rule="evenodd" d="M 13.1213 13.9198C 12.8847 13.5429 7.79366 10.509 0 4.8906C 3.22458 5.67372 9.09973 5.70829 10.1222 5.95032C 15.6172 7.52693 16.9455 12.988 21.2199 17.4248C 21.6658 17.8743 22.0245 18.1915 22.3013 18.418C 23.4365 15.5854 23.6227 12.281 25.3755 10.267C 28.7539 6.09985 30.2239 5.48183 32.555 2.40813C 34.2472 7.52174 29.1869 14.7747 28.0534 16.1473C 27.9561 16.2225 27.8817 16.2795 27.8638 16.3055C 27.7639 16.4688 27.8561 16.3858 28.0534 16.1473C 28.5318 15.7773 29.878 14.7617 31.4634 12.6578C 33.2888 10.1944 35.6549 5.75238 35.0091 0C 37.3249 2.9207 38.5959 11.4503 37.7238 13.1877C 34.553 22.1598 26.685 21.6749 20.4024 22.5471C 19.1305 22.7001 18.4207 22.9066 18.1576 23C 18.4156 22.8824 19.0981 22.5211 20.0787 21.6991C 21.1003 20.8261 21.7563 19.731 22.2449 18.5502C 21.8973 18.4145 21.4223 18.2503 20.7731 18.0904C 16.8421 17.0099 12.2107 19.5071 8.01148 17.0047C 2.5865 13.4522 2.18332 11.3198 0.46041 7.97553C 5.45061 10.3491 13.8772 14.3874 13.1213 13.9198Z"/>
<path id="path62_fill" fill-rule="evenodd" d="M 0 7.48004C 1.61147 4.4757 8.20013 0.011874 10.1372 0.0642703C 19.4117 -0.772381 22.4692 6.73973 24.2391 12.0968C 24.5769 13.1955 24.8729 13.7811 25 14C 24.852 13.7904 24.4193 13.2597 23.5339 12.565C 20.0959 10.0593 15.5749 12.554 12.5122 11.5509C 7.9198 10.3069 6.6113 9.38659 3.04447 8.62769C 6.68617 5.20672 14.5503 6.56141 16.4011 7.09721C 16.6231 7.22651 16.7381 7.30257 16.7198 7.27806C 16.9252 7.28313 16.7764 7.20623 16.4011 7.09721C 14.9629 6.25549 8.67025 2.95874 0 7.48004Z"/>
<path id="path63_fill" fill-rule="evenodd" d="M 0 7.48004C 1.61147 4.47486 8.20013 0.011874 10.1372 0.0642703C 19.4117 -0.772381 22.4683 6.73973 24.2382 12.0968C 24.576 13.1946 24.8729 13.7811 25 14C 24.8511 13.7904 24.4184 13.2597 23.533 12.5642C 20.0959 10.0593 15.5741 12.5532 12.5113 11.5509C 7.91893 10.3061 6.6113 9.38659 3.04447 8.62684C 6.6853 5.20672 14.5494 6.56141 16.4003 7.09721C 16.6223 7.22651 16.7372 7.30172 16.7189 7.27721C 16.9244 7.28313 16.7755 7.20538 16.4003 7.09721C 14.962 6.25549 8.66938 2.9579 0 7.48004Z"/>
<path id="path64_fill" fill-rule="evenodd" d="M 19.5924 12.7182C 16.5703 10.5101 12.319 12.016 9.48045 10.3453C 5.45137 8.12 4.68552 6.92923 2.00636 5.17614C 6.11901 3.68832 12.5835 6.74723 13.7826 7.36794C 13.8602 7.42803 13.9162 7.46581 13.9282 7.45207C 14.0505 7.51388 13.9799 7.4701 13.7826 7.36794C 12.9789 6.74637 8.62157 2.52503 0 3.18008C 2.41814 1.49995 8.69566 -0.302936 10.1326 0.0430472C 17.3138 1.29305 18.3019 7.43833 20.1971 12.3053C 20.5753 13.3003 20.8811 13.8197 21 14C 20.8647 13.8274 20.4469 13.351 19.5924 12.7182Z"/>
<path id="path65_fill" fill-rule="evenodd" d="M 10.0402 0.0130802C 18.7815 -0.341084 20.5256 6.57406 24.4472 11.3803C 25.251 12.3596 25.7941 12.8372 26 13C 25.7778 12.8515 25.1275 12.4652 23.9341 12.0565C 19.8642 10.5888 15.3704 13.2307 11.9139 12.0153C 7.21593 10.5182 6.3726 9.43868 2.94608 8.65701C 6.47212 5.01431 14.5674 7.07222 15.9941 7.53639C 16.0628 7.57485 16.1134 7.60257 16.1348 7.60973C 16.2978 7.64729 16.224 7.61152 15.9941 7.53639C 15.5626 7.28686 14.2002 6.45064 11.7946 5.75484C 9.11793 5.01431 4.4277 4.50274 0 7.54891C 1.33663 4.25321 8.23428 -0.199776 10.0402 0.0130802Z"/>
<path id="path66_fill" fill-rule="evenodd" d="M 8.06905 10.6035C 11.9854 6.06255 13.8571 5.13553 16.919 2.13054C 17.7444 7.90896 12.1986 15.5406 10.9083 17.0028C 10.7593 17.1071 10.6608 17.1716 10.6651 17.1775C 10.5684 17.3514 10.6788 17.2623 10.9083 17.0028C 12.2055 16.1012 18.7145 11.3457 20.0759 0C 21.7395 3.67587 22.4964 12.3778 21.6522 14.1674C 18.5715 23.2553 7.73855 24.6437 1.80235 21.4293C 0.823687 20.7245 0.232893 20.4361 0 20.3419C 0.242311 20.4106 0.88191 20.5421 1.90767 20.4641C 6.1845 19.3734 5.37708 13.4711 8.06905 10.6035Z"/>
<path id="path67_fill" fill-rule="evenodd" d="M 30 9.30506C 26.4832 10.499 19.7299 12.9378 18.3745 12.9905C 11.1588 13.2671 8.17486 7.4429 2.1881 3.79897C 1.01498 3.10822 0.279314 2.81861 0 2.72697C 0.289627 2.79699 1.1078 2.95001 2.50093 2.93532C 7.20715 2.9967 11.5988 -1.01465 16.7047 0.244946C 23.4417 2.10538 24.5573 3.95544 27.8953 6.46427C 21.7847 7.04609 11.1622 4.99546 12.1738 5.30841C 12.5829 5.41042 18.9435 8.0593 30 9.30506Z"/>
<path id="path68_fill" fill-rule="evenodd" d="M 15.7671 17.0833C 15.4769 16.5182 9.32853 10.6302 0.411616 0C 4.66297 2.19705 12.8798 4.39757 14.1835 5.04688C 21.1862 8.9401 20.8822 16.7726 26.7378 23.8151C 27.8986 25.1215 28.69 25.7708 29 26C 28.6659 25.7917 27.7212 25.2717 26.005 24.7118C 20.4112 22.6641 12.9013 24.809 7.54773 19.7595C 0.932595 12.7995 1.28221 9.69531 0 4.45573C 6.06402 9.56858 16.6308 18.0608 15.7671 17.0833Z"/>
<path id="path69_fill" fill-rule="evenodd" d="M 11.6477 4.55642C 12.0945 4.62799 17.5482 7.43023 27 10.9214C 23.5941 11.1835 17.2275 12.0613 16.1313 11.9966C 10.1099 11.393 8.64484 6.03601 2.28695 3.58641C 1.00328 3.20272 0.248848 3.10529 0 3.08459C 0.261115 3.09149 1.07688 3.07425 2.45431 2.78885C 6.80126 2.08354 11.4453 -1.29468 16.4117 0.538426C 22.6828 3.226 23.2016 5.19275 25.719 8.02259C 20.2206 7.06723 10.8249 4.00718 11.6477 4.55642Z"/>
<path id="path70_fill" fill-rule="evenodd" d="M 23 10.213C 19.8787 10.0099 14.4419 11.0713 13.4211 10.9962C 7.88782 10.4467 5.46045 5.48473 1.53774 1.48935C -0.468 -0.571907 -0.690765 0.228364 1.94401 0.863974C 5.62091 1.78539 9.48132 -1.10258 13.5662 0.487727C 19.0346 2.80578 19.8907 4.66313 22.0577 7.45384C 16.9597 6.2048 8.53051 3.85091 9.31659 4.1043C 9.54619 4.47714 14.8038 6.43174 23 10.213Z"/>
<path id="path71_fill" fill-rule="evenodd" d="M 11.9961 6.92547C 18.1206 2.76475 20.3856 2.72309 24.835 0.780454C 22.7363 7.73313 11.934 15.4356 13.0446 14.656C 13.1575 14.3398 21.9504 11.5648 29 0C 28.8363 4.29165 26.5565 13.0994 25.312 14.5838C 19.3222 22.4266 10.8356 20.3309 2.82071 20.6786C 1.21825 20.7373 0.320316 20.9175 0 21C 0.319441 20.892 1.20687 20.5341 2.53277 19.6508C 7.16423 16.5732 7.51168 9.92231 11.9961 6.92547Z"/>
<path id="path72_fill" fill-rule="evenodd" d="M 12.7437 0.112666C 17.8328 -0.240217 19.2912 0.354157 22.8627 0.292934C 20.074 4.1789 12.2355 5.26986 10.5888 5.42037C 10.438 5.40506 10.3412 5.40081 10.343 5.42547C 10.1756 5.44758 10.2968 5.44673 10.5888 5.42037C 11.899 5.56067 18.5973 6.79023 26 0.815031C 24.9252 3.90935 20.1063 9.41772 18.5337 9.98404C 10.9549 13.2068 5.87628 8.06656 1.60833 4.25968C 0.752297 3.47398 0.201368 3.11855 0 3.00546C 0.214444 3.10665 0.852545 3.36259 1.99101 3.55221C 6.09683 4.14064 9.15832 0.243616 12.7437 0.112666Z"/>
<path id="path73_fill" fill-rule="evenodd" d="M 1.24705 24C 1.07158 20.7582 -0.111794 14.8522 0.0085779 13.691C 0.727419 7.53888 6.13314 5.2233 10.5649 1.42182C 11.4329 0.688693 11.8559 0.18969 12 0C 11.8678 0.204215 11.5329 0.801481 11.1879 1.89604C 9.96724 5.69752 12.7316 9.88778 11.0082 13.9695C 8.55753 19.468 6.77823 20.3446 4.03511 22.773C 4.75225 17.3762 7.66407 8.59242 7.3572 9.41954C 7.06221 9.68186 4.39961 14.9658 1.24705 24Z"/>
<path id="path74_fill" fill-rule="evenodd" d="M 16 24C 12.4481 23.7466 5.21864 21.4682 4.01505 20.3273C -2.25133 14.8586 0.263828 7.8624 1.96781 2.07579C 2.3216 0.927282 2.40676 0.249197 2.42256 0C 2.42695 0.252587 2.48489 0.961187 2.84307 2.09105C 4.23189 6.16295 9.52995 7.1572 11.3788 10.6095C 14.1275 15.4459 14.1512 17.1996 15.5259 20.7333C 10.5106 19.1398 5.81824 12.125 5.04657 10.8629C 5.01672 10.7807 4.99214 10.7239 4.97634 10.7205C 4.89645 10.6002 4.92806 10.6671 5.04657 10.8629C 5.42933 11.8724 7.265 18.5423 16 24Z"/>
<path id="path75_fill" fill-rule="evenodd" d="M 19.9549 0C 20.2309 3.13995 19.185 9.78982 18.3164 11.0091C 14.2228 17.2855 7.48088 16.1143 1.95863 15.475C 0.860703 15.3342 0.230167 15.3604 0 15.3814C 0.230167 15.3412 0.867757 15.1855 1.84751 14.7079C 5.36352 12.8983 5.51432 8.12364 8.3989 6.00177C 12.4193 2.89155 14.0155 2.61342 17.0421 0.89388C 16.3048 5.50847 10.5762 10.6365 9.53563 11.4954C 9.4642 11.5347 9.41658 11.5636 9.4157 11.5776C 9.31693 11.6659 9.37337 11.6283 9.53563 11.4954C 10.4016 11.0134 16.2246 8.43151 19.9549 0Z"/>
<path id="path76_fill" fill-rule="evenodd" d="M 10.2369 20.5141C 7.90197 15.9903 4.06002 8.26537 4.34199 9.03574C 4.30025 9.44638 6.28767 14.5285 8.84329 23C 6.9172 20.6185 2.62547 17.2332 2.0266 16.4739C -1.11169 12.2114 1.02991 7.53573 0.391861 1.90981C 0.257265 0.833155 0.080076 0.22653 0 0C 0.0996691 0.223136 0.404639 0.815338 1.0938 1.68582C 3.36064 4.69519 8.1652 5.53598 9.82123 9.7323C 11.7729 15.3794 10.8503 17.1323 10.2369 20.5141Z"/>
<path id="path77_fill" fill-rule="evenodd" d="M 11.3939 0.0622121C 18.9669 1.66547 20.5531 8.60608 21.518 14.1031C 21.7022 15.2001 21.9128 15.7926 22 16C 21.8943 15.7977 21.5524 15.2351 20.7839 14.4463C 17.8848 11.6316 13.1704 13.2161 10.0404 11.2474C 5.46255 8.52412 4.52319 7.05575 1.79236 4.64745C 6.73236 4.00547 13.9335 7.58249 15.0773 8.22362C 15.1249 8.26716 15.1575 8.29277 15.1672 8.29703C 15.2835 8.34996 15.2421 8.31838 15.0773 8.22362C 14.3697 7.60639 9.6456 3.19018 0 2.08805C 3.11592 0.982504 9.89762 -0.298904 11.3939 0.0622121Z"/>
<path id="path78_fill" fill-rule="evenodd" d="M 17.4652 0.308047C 25.168 2.95676 25.8187 5.67485 28.2202 9.19779C 22.3327 6.60285 11.7422 4.78588 12.689 5.32967C 13.0884 5.56384 19.8615 6.77198 29 12.6609C 25.2446 11.8899 18.8829 12.8604 17.9137 13C 12.4669 12.8803 9.76508 7.51351 2.49958 6.00355C 1.08367 5.80408 0.271133 5.82316 0 5.84397C 0.280601 5.80581 1.13445 5.64623 2.52799 5.09897C 6.94444 3.5656 11.3075 -1.25568 17.4652 0.308047Z"/>
<path id="path79_fill" fill-rule="evenodd" d="M 17.4652 0.308047C 25.1689 2.95676 25.8196 5.67485 28.221 9.19779C 22.3336 6.60199 11.7422 4.78588 12.689 5.32967C 13.0884 5.56384 19.8615 6.77198 29 12.6609C 25.2455 11.8899 18.8829 12.8604 17.9137 13C 12.4678 12.8803 9.76508 7.51351 2.49958 6.00355C 1.08367 5.80408 0.271993 5.82316 0 5.84397C 0.280601 5.80581 1.13531 5.64623 2.52885 5.09897C 6.94444 3.5656 11.3075 -1.25568 17.4652 0.308047Z"/>
<path id="path80_fill" fill-rule="evenodd" d="M 25 10.7122C 21.8485 11.2377 15.669 12.1445 14.5552 11.9804C 8.53065 11.0754 7.26883 5.68061 1.95096 2.28957C 0.905429 1.67031 0.247811 1.41161 0 1.32778C 0.257443 1.39268 0.988616 1.5333 2.23905 1.5315C 6.338 1.65769 10.7933 -1.28085 15.1401 0.67157C 20.7005 3.42803 21.2119 5.23352 23.6462 7.92327C 18.4448 7.40677 9.71716 3.87872 10.5114 4.38621C 10.9019 4.46012 15.8214 7.83494 25 10.7122Z"/>
<path id="path81_fill" fill-rule="evenodd" d="M 22 1.59625C 20.8489 4.28711 16.3941 8.99968 14.9632 9.37875C 8.12163 11.8347 3.88264 6.49302 1.13581 2.3624C -0.301073 0.145819 -0.601575 0.89595 1.5762 1.80091C 4.89727 3.02533 7.85135 -0.178971 10.7605 0.00789461C 15.0125 0.0995477 16.287 0.712644 19.3464 0.89773C 16.6816 4.3058 9.86938 4.65017 8.47999 4.62169C 8.35996 4.59144 8.28138 4.57275 8.28138 4.58788C 8.14062 4.60123 8.23734 4.61724 8.47999 4.62169C 9.55506 4.89398 15.224 6.5206 22 1.59625Z"/>
<path id="path82_fill" fill-rule="evenodd" d="M 0.0664643 0C -0.0155357 0.112 -0.0285357 0.11 0.0664643 0L 0.0664643 0Z"/>
<path id="path83_fill" fill-rule="evenodd" d="M 0 0L 359.219 0L 359.219 460.053L 0 460.053L 0 0Z"/>
<path id="path84_fill" fill-rule="evenodd" d="M 93.8916 278.049C 97.5185 278.012 101.169 278.066 104.843 278.18C 106.251 278.261 106.701 276.394 105.438 275.879C 93.7964 271.122 80.1822 265.648 70.6033 260.227C 56.7433 252.423 43.6033 242.537 33.9032 229.658C 24.0482 216.903 18.2838 201.451 15.7699 185.933C 19.7896 207.297 31.0275 227.551 48.0453 241.242C 60.1979 251.322 88.3843 264.668 88.3887 264.668C 94.6549 267.36 100.154 269.566 105.648 271.742C 121.024 278.002 137.226 283.539 152.243 291.414C 151.608 290.236 150.987 289.08 150.411 288.034C 146.629 281.147 142.965 274.369 138.189 268.571C 123.895 249.197 92.4196 249.024 78.5492 226.2C 88.6301 241.329 107.054 244.83 122.496 252.404C 133.787 257.269 143.325 266.205 149.89 276.479C 154.571 283.444 156.45 291.766 162.865 297.539C 170.402 304.32 178.975 309.024 185.569 317.072C 186.708 318.491 187.724 318.066 187.628 317.266C 187.107 313.054 187.357 307.124 186.997 304.709C 184.681 289.006 179.772 273.466 171.934 259.625C 163.426 244.246 150.634 231.502 135.182 222.189C 119.878 212.637 102.663 206.146 85.7371 198.576C 69.0248 191.152 51.4895 181.193 41.9876 164.298C 32.4234 147.646 31.1166 128.191 32.027 110.034C 31.7838 122.661 32.6908 135.559 36.495 147.782C 40.1815 160.023 47.5165 171.142 57.5256 178.992C 77.8033 194.712 103.625 200.175 126.759 211.866C 132.181 214.501 138.588 218.395 143.74 221.642C 126.487 210.754 114.665 181.156 109.694 162.661C 108.472 158.107 107.443 153.516 106.551 148.9C 106.506 148.665 106.298 147.556 106.254 147.325C 102.898 129.363 101.584 111.016 99.5789 92.8824C 104.212 121.284 105.549 150.882 117.735 177.427C 129.865 203.861 151.894 222.701 169.932 244.762C 176.699 253.041 182.096 261.806 186.351 272.34C 186.441 268.569 186.579 266.474 186.779 263.721C 184.839 249.542 182.536 235.434 179.739 221.507C 176.934 207.537 173.636 193.546 169.723 179.789C 165.273 164.426 160.077 149.174 153.098 134.884C 146.049 121.11 137.255 106.108 122.661 100.993C 132.839 103.792 140.704 112.473 146.955 121.338C 153.253 130.409 158.264 140.426 162.707 150.674C 171.481 171.257 177.954 192.908 183.296 214.757C 185.51 223.934 187.173 234.365 189.802 243.051C 187.589 235.741 193.118 219.84 194.142 213.984C 195.886 204.024 197.175 193.987 198.291 183.936C 200.92 160.286 195.092 137.207 181.711 117.571C 172.128 103.341 160.298 90.1424 150.014 75.6507C 139.712 61.3476 130.889 44.8865 129.593 27.045C 132.479 51.8396 149.044 71.6929 164.69 90.1986C 175.708 103.306 187.251 115.911 195.802 131.154C 197.572 134.335 199.15 137.302 200.537 141.133C 200.435 136.344 200.163 130.145 199.682 124.644C 197.854 104.047 193.155 83.5924 184.456 64.8557C 175.839 46.0965 163.32 29.2584 148.376 15.2087C 169.572 33.9047 186.303 58.4657 195.13 86.2399C 202.703 109.475 205.238 134.177 204.93 158.744C 205.087 161.238 205.006 163.208 204.803 164.771C 204.711 167.57 204.594 170.268 204.448 172.968C 203.346 193.378 200.827 213.467 197.894 233.382C 195.845 244.903 194.693 256.27 194.428 267.674C 194.681 269.234 194.912 270.546 195.141 271.859C 196.749 264.814 198.694 257.856 201.026 251.028C 206.724 234.35 215.437 217.756 221.281 200.715C 227.99 181.168 228.577 161.954 227.245 141.507C 225.967 121.376 223.018 100.871 222.479 80.0981C 221.818 59.3799 224.146 38.2215 231.58 18.9711C 222.078 45.9971 223.293 75.4812 226.833 103.821C 229.143 123.729 232.564 143.202 233.188 163.333C 233.39 168.504 233.295 173.711 233.067 178.943C 232.891 181.674 232.707 184.154 232.44 186.631C 243.682 169.017 253.109 150.472 260.519 131.094C 276.997 89.5724 281.432 43.7518 274.922 0C 279.986 30.0204 280.643 61.3761 274.819 92.0789C 273.208 100.769 271.09 109.366 268.574 117.853C 261.929 139.995 253.007 160.53 242.683 180.169C 232.568 199.72 220.434 217.646 213.164 237.663C 208.63 250.143 204.176 262.759 201.635 275.822C 200.317 282.593 199.437 289.499 199.565 296.412C 199.6 298.399 200.49 301.057 201.147 303.637C 201.444 304.797 203.083 304.853 203.449 303.712C 207.829 290.074 213.498 277.723 221.887 265.694C 229.458 254.84 239.691 244.822 247.978 234.034C 257.02 222.273 263.566 208.865 269.716 195.428C 278.072 177.847 282.486 158.321 288.235 139.093C 293.941 119.989 301.416 100.501 315.192 85.7235C 296.768 106.977 291.47 135.448 284.641 162.196C 280.136 181.153 273.579 199.482 264.841 216.795C 262.67 221.297 260.258 225.689 257.85 230.115C 257.545 230.629 257.251 231.135 256.962 231.634C 259.477 229.66 262.003 227.708 264.521 225.759C 279.96 214.042 295.798 202.888 310.679 190.587C 325.436 178.283 339.662 164.809 349.101 148.245C 358.78 131.849 361.206 111.755 355.445 93.6755C 359.573 105.982 360.563 119.56 357.175 132.439C 353.896 145.349 346.799 157.158 338.318 167.609C 321.106 188.562 299.099 205.038 277.922 221.738C 263.137 233.384 248.44 245.031 236.302 258.671C 224.241 272.062 216.671 289.102 211.494 306.448C 210.131 311.068 208.957 315.75 207.94 320.484C 212.324 312.298 216.972 304.294 223.342 297.303C 235.359 284.824 250.499 277.616 265.296 270.619C 280.21 263.753 295.413 257.655 309.886 250.213C 315.54 247.285 321.36 243.989 326.668 240.463C 334.753 235.069 342.132 228.798 347.85 221.07C 357.564 208.296 360.08 191.431 357.19 175.777C 359.433 186.507 359.643 197.945 356.03 208.6C 352.534 219.29 345.353 228.625 336.772 236.125C 319.369 251.189 297.888 260.532 277.419 270.45C 272.854 272.655 266.534 275.197 261.203 277.664C 260.028 278.207 260.431 279.965 261.723 279.952C 262.333 279.945 262.828 279.945 263.092 279.958C 271.423 280.413 279.343 281.114 287.391 282.251C 299.984 283.998 312.86 285.785 325.589 284.457C 338.3 283.433 350.552 277.199 357.472 266.454C 353.074 273.951 346.084 280.156 337.577 283.425C 329.11 286.775 319.774 287.714 310.668 287.667C 286.326 287.538 258.771 277.112 237.014 294.003C 225.055 303.286 218.105 317.162 213.906 331.749C 211.725 339.289 211.304 345.708 210.007 353.656C 209.665 355.788 210.216 369.992 210.337 371.544C 212.881 404.345 218.339 412.822 233.095 440.181C 236.04 445.64 241.134 452.155 243.9 458.366C 244.253 459.16 243.665 460.053 242.797 460.053L 161.389 460.053C 160.438 460.053 159.868 458.998 160.383 458.199C 165.358 450.47 170.049 444.264 172.278 436.066C 175.719 423.418 179.919 407.103 181.409 394.051C 182.029 388.656 182.896 367.756 183.356 349.048C 183.745 333.27 176.917 318.115 164.678 308.143C 161.549 305.593 158.242 303.22 154.806 301.061C 131.04 286.126 105.559 283.899 78.2256 282.61C 63.9614 281.921 49.0777 281.083 34.9563 276.379C 20.8108 271.806 8.40029 262.372 0 250.491C 12.3032 266.732 32.085 275.764 52.0295 277.451C 65.9847 279.015 79.8144 278.115 93.8916 278.049Z"/>
</defs>
</svg>
